<svg viewBox="0 0 330 200" xmlns="http://www.w3.org/2000/svg"><g><g><g><g><g><line x1="60" y1="178" x2="55" y2="178" style="visibility: inherit;" fill="rgb(0, 0, 0)" stroke="rgb(204, 204, 204)" stroke-width="1px"></line><line x1="60" y1="161.8181818181818" x2="55" y2="161.8181818181818" style="visibility: inherit;" fill="rgb(0, 0, 0)" stroke="rgb(204, 204, 204)" stroke-width="1px"></line><line x1="60" y1="145.63636363636363" x2="55" y2="145.63636363636363" style="visibility: inherit;" fill="rgb(0, 0, 0)" stroke="rgb(204, 204, 204)" stroke-width="1px"></line><line x1="60" y1="129.45454545454544" x2="55" y2="129.45454545454544" style="visibility: inherit;" fill="rgb(0, 0, 0)" stroke="rgb(204, 204, 204)" stroke-width="1px"></line><line x1="60" y1="113.27272727272727" x2="55" y2="113.27272727272727" style="visibility: inherit;" fill="rgb(0, 0, 0)" stroke="rgb(204, 204, 204)" stroke-width="1px"></line><line x1="60" y1="97.0909090909091" x2="55" y2="97.0909090909091" style="visibility: inherit;" fill="rgb(0, 0, 0)" stroke="rgb(204, 204, 204)" stroke-width="1px"></line><line x1="60" y1="80.90909090909092" x2="55" y2="80.90909090909092" style="visibility: inherit;" fill="rgb(0, 0, 0)" stroke="rgb(204, 204, 204)" stroke-width="1px"></line><line x1="60" y1="64.72727272727275" x2="55" y2="64.72727272727275" style="visibility: inherit;" fill="rgb(0, 0, 0)" stroke="rgb(204, 204, 204)" stroke-width="1px"></line><line x1="60" y1="48.54545454545456" x2="55" y2="48.54545454545456" style="visibility: inherit;" fill="rgb(0, 0, 0)" stroke="rgb(204, 204, 204)" stroke-width="1px"></line><line x1="60" y1="32.363636363636374" x2="55" y2="32.363636363636374" style="visibility: inherit;" fill="rgb(0, 0, 0)" stroke="rgb(204, 204, 204)" stroke-width="1px"></line><line x1="60" y1="16.181818181818187" x2="55" y2="16.181818181818187" style="visibility: inherit;" fill="rgb(0, 0, 0)" stroke="rgb(204, 204, 204)" stroke-width="1px"></line><line x1="60" y1="0" x2="55" y2="0" style="visibility: inherit;" fill="rgb(0, 0, 0)" stroke="rgb(204, 204, 204)" stroke-width="1px"></line></g><g transform="translate(50, 0)"><text x="0" y="178" dx="0em" dy="0.3em" style="text-anchor: end; visibility: hidden; font-family: &quot;Helvetica Neue&quot;, sans-serif; font-size: 12px; font-weight: 200;" fill="rgb(50, 49, 63)" stroke="none" stroke-width="1px">-0.05</text><text x="0" y="161.8181818181818" dx="0em" dy="0.3em" style="text-anchor: end; visibility: inherit; font-family: &quot;Helvetica Neue&quot;, sans-serif; font-size: 12px; font-weight: 200;" fill="rgb(50, 49, 63)" stroke="none" stroke-width="1px">0</text><text x="0" y="145.63636363636363" dx="0em" dy="0.3em" style="text-anchor: end; visibility: hidden; font-family: &quot;Helvetica Neue&quot;, sans-serif; font-size: 12px; font-weight: 200;" fill="rgb(50, 49, 63)" stroke="none" stroke-width="1px">0.05</text><text x="0" y="129.45454545454544" dx="0em" dy="0.3em" style="text-anchor: end; visibility: inherit; font-family: &quot;Helvetica Neue&quot;, sans-serif; font-size: 12px; font-weight: 200;" fill="rgb(50, 49, 63)" stroke="none" stroke-width="1px">0.1</text><text x="0" y="113.27272727272727" dx="0em" dy="0.3em" style="text-anchor: end; visibility: hidden; font-family: &quot;Helvetica Neue&quot;, sans-serif; font-size: 12px; font-weight: 200;" fill="rgb(50, 49, 63)" stroke="none" stroke-width="1px">0.15</text><text x="0" y="97.0909090909091" dx="0em" dy="0.3em" style="text-anchor: end; visibility: inherit; font-family: &quot;Helvetica Neue&quot;, sans-serif; font-size: 12px; font-weight: 200;" fill="rgb(50, 49, 63)" stroke="none" stroke-width="1px">0.2</text><text x="0" y="80.90909090909092" dx="0em" dy="0.3em" style="text-anchor: end; visibility: hidden; font-family: &quot;Helvetica Neue&quot;, sans-serif; font-size: 12px; font-weight: 200;" fill="rgb(50, 49, 63)" stroke="none" stroke-width="1px">0.25</text><text x="0" y="64.72727272727275" dx="0em" dy="0.3em" style="text-anchor: end; visibility: inherit; font-family: &quot;Helvetica Neue&quot;, sans-serif; font-size: 12px; font-weight: 200;" fill="rgb(50, 49, 63)" stroke="none" stroke-width="1px">0.3</text><text x="0" y="48.54545454545456" dx="0em" dy="0.3em" style="text-anchor: end; visibility: hidden; font-family: &quot;Helvetica Neue&quot;, sans-serif; font-size: 12px; font-weight: 200;" fill="rgb(50, 49, 63)" stroke="none" stroke-width="1px">0.35</text><text x="0" y="32.363636363636374" dx="0em" dy="0.3em" style="text-anchor: end; visibility: inherit; font-family: &quot;Helvetica Neue&quot;, sans-serif; font-size: 12px; font-weight: 200;" fill="rgb(50, 49, 63)" stroke="none" stroke-width="1px">0.4</text><text x="0" y="16.181818181818187" dx="0em" dy="0.3em" style="text-anchor: end; visibility: hidden; font-family: &quot;Helvetica Neue&quot;, sans-serif; font-size: 12px; font-weight: 200;" fill="rgb(50, 49, 63)" stroke="none" stroke-width="1px">0.45</text><text x="0" y="0" dx="0em" dy="0.3em" style="text-anchor: end; visibility: hidden; font-family: &quot;Helvetica Neue&quot;, sans-serif; font-size: 12px; font-weight: 200;" fill="rgb(50, 49, 63)" stroke="none" stroke-width="1px">0.5</text></g><line x1="60" y1="0" x2="60" y2="178" fill="rgb(0, 0, 0)" stroke="rgb(204, 204, 204)" stroke-width="1px"></line></g></g><g transform="translate(60, 0)" clip-path="url(#clip_0)"><clipPath id="clip_0"><rect width="270" height="178"></rect></clipPath><g><g><g><line x1="0" y1="0" x2="0" y2="178" fill="rgb(0, 0, 0)" stroke="rgb(60, 60, 60)" stroke-width="1px" opacity="0.25"></line><line x1="24.545454545454547" y1="0" x2="24.545454545454547" y2="178" fill="rgb(0, 0, 0)" stroke="rgb(60, 60, 60)" stroke-width="1px" opacity="0.25"></line><line x1="49.09090909090909" y1="0" x2="49.09090909090909" y2="178" fill="rgb(0, 0, 0)" stroke="rgb(60, 60, 60)" stroke-width="1px" opacity="0.25"></line><line x1="73.63636363636363" y1="0" x2="73.63636363636363" y2="178" fill="rgb(0, 0, 0)" stroke="rgb(60, 60, 60)" stroke-width="1px" opacity="0.25"></line><line x1="98.18181818181819" y1="0" x2="98.18181818181819" y2="178" fill="rgb(0, 0, 0)" stroke="rgb(60, 60, 60)" stroke-width="1px" opacity="0.25"></line><line x1="122.72727272727272" y1="0" x2="122.72727272727272" y2="178" fill="rgb(0, 0, 0)" stroke="rgb(60, 60, 60)" stroke-width="1px" opacity="0.25"></line><line x1="147.27272727272725" y1="0" x2="147.27272727272725" y2="178" fill="rgb(0, 0, 0)" stroke="rgb(60, 60, 60)" stroke-width="1px" opacity="0.25"></line><line x1="171.8181818181818" y1="0" x2="171.8181818181818" y2="178" fill="rgb(0, 0, 0)" stroke="rgb(60, 60, 60)" stroke-width="1px" opacity="0.25"></line><line x1="196.36363636363637" y1="0" x2="196.36363636363637" y2="178" fill="rgb(0, 0, 0)" stroke="rgb(60, 60, 60)" stroke-width="1px" opacity="0.25"></line><line x1="220.90909090909093" y1="0" x2="220.90909090909093" y2="178" fill="rgb(0, 0, 0)" stroke="rgb(60, 60, 60)" stroke-width="1px" opacity="0.25"></line><line x1="245.45454545454544" y1="0" x2="245.45454545454544" y2="178" fill="rgb(0, 0, 0)" stroke="rgb(60, 60, 60)" stroke-width="1px" opacity="0.25"></line><line x1="270" y1="0" x2="270" y2="178" fill="rgb(0, 0, 0)" stroke="rgb(60, 60, 60)" stroke-width="1px" opacity="0.25"></line></g><g><line x1="0" y1="178" x2="270" y2="178" fill="rgb(0, 0, 0)" stroke="rgb(60, 60, 60)" stroke-width="1px" opacity="0.25"></line><line x1="0" y1="161.8181818181818" x2="270" y2="161.8181818181818" fill="rgb(0, 0, 0)" stroke="rgb(60, 60, 60)" stroke-width="1px" opacity="0.25"></line><line x1="0" y1="145.63636363636363" x2="270" y2="145.63636363636363" fill="rgb(0, 0, 0)" stroke="rgb(60, 60, 60)" stroke-width="1px" opacity="0.25"></line><line x1="0" y1="129.45454545454544" x2="270" y2="129.45454545454544" fill="rgb(0, 0, 0)" stroke="rgb(60, 60, 60)" stroke-width="1px" opacity="0.25"></line><line x1="0" y1="113.27272727272727" x2="270" y2="113.27272727272727" fill="rgb(0, 0, 0)" stroke="rgb(60, 60, 60)" stroke-width="1px" opacity="0.25"></line><line x1="0" y1="97.0909090909091" x2="270" y2="97.0909090909091" fill="rgb(0, 0, 0)" stroke="rgb(60, 60, 60)" stroke-width="1px" opacity="0.25"></line><line x1="0" y1="80.90909090909092" x2="270" y2="80.90909090909092" fill="rgb(0, 0, 0)" stroke="rgb(60, 60, 60)" stroke-width="1px" opacity="0.25"></line><line x1="0" y1="64.72727272727275" x2="270" y2="64.72727272727275" fill="rgb(0, 0, 0)" stroke="rgb(60, 60, 60)" stroke-width="1px" opacity="0.25"></line><line x1="0" y1="48.54545454545456" x2="270" y2="48.54545454545456" fill="rgb(0, 0, 0)" stroke="rgb(60, 60, 60)" stroke-width="1px" opacity="0.25"></line><line x1="0" y1="32.363636363636374" x2="270" y2="32.363636363636374" fill="rgb(0, 0, 0)" stroke="rgb(60, 60, 60)" stroke-width="1px" opacity="0.25"></line><line x1="0" y1="16.181818181818187" x2="270" y2="16.181818181818187" fill="rgb(0, 0, 0)" stroke="rgb(60, 60, 60)" stroke-width="1px" opacity="0.25"></line><line x1="0" y1="0" x2="270" y2="0" fill="rgb(0, 0, 0)" stroke="rgb(60, 60, 60)" stroke-width="1px" opacity="0.25"></line></g></g></g><g><g><line x1="0" y1="161.8181818181818" x2="270" y2="161.8181818181818" fill="rgb(0, 0, 0)" stroke="rgb(153, 153, 153)" stroke-width="1.5px"></line></g></g><g><g><line x1="24.545454545454547" y1="0" x2="24.545454545454547" y2="178" fill="rgb(0, 0, 0)" stroke="rgb(153, 153, 153)" stroke-width="1.5px"></line></g></g><g><g><g><g><g><path stroke="rgb(255, 112, 67)" stroke-width="2px" d="M27.98181818181818,-0.5603997750959877L28.227272727272727,0.06748352063559082L28.472727272727273,2.8405433563636393L28.71818181818182,4.4446590368722525L28.96363636363636,4.265617128508069L29.20909090909091,5.828731352090728L29.454545454545453,7.328834978914188L29.7,8.259410731842706L29.94545454545455,9.732567334253986L30.19090909090909,10.803407418382534L30.436363636363637,12.207179319813065L30.68181818181818,13.549534992852244L30.92727272727273,15.600248198035416L31.172727272727272,16.724874575896877L31.418181818181818,18.610505893533627L31.663636363636364,18.320710410377842L31.90909090909091,21.45311769716531L32.154545454545456,21.39961468767106L32.4,22.695479465524187L32.64545454545455,22.854484002325876L32.89090909090909,23.13265394259352L33.13636363636363,24.766284744200362L33.38181818181818,25.308220030285497L33.627272727272725,25.620923567430935L33.872727272727275,25.356679753643647L34.11818181818182,26.39974121618772L34.36363636363636,28.263297152871928L34.60909090909091,29.014684850900125L34.85454545454545,28.777762881306785L35.1,29.087606806479755L35.34545454545455,30.115010886378514L35.590909090909086,31.00604976527103L35.836363636363636,30.93183483775408L36.08181818181818,31.475738930210753L36.32727272727273,32.875520983779325L36.57272727272728,34.01053460046191L36.81818181818181,33.69129416489881L37.06363636363636,34.314711987209705L37.30909090909091,34.23077788632304L37.554545454545455,33.613199772342284L37.800000000000004,35.71822991159763L38.04545454545454,35.75820880156175L38.29090909090909,35.32691968963107L38.53636363636364,36.408153657664855L38.78181818181818,36.19791164886135L39.027272727272724,36.8670679243061L39.27272727272727,38.43374562387143L39.518181818181816,37.265758294067126L39.763636363636365,37.361444080971324L40.009090909090915,38.37161932729208L40.25454545454545,39.21707765501617L40.5,39.042693776792106L40.74545454545454,40.63042237715092L40.99090909090909,41.06568398146081L41.23636363636364,41.39085364490788L41.48181818181818,42.040221080807356L41.72727272727273,42.72637868154604L41.972727272727276,42.6314732088361L42.21818181818182,43.42388263177247L42.46363636363637,43.025284083943546L42.709090909090904,44.160847089229435L42.95454545454545,44.274087604442656L43.2,42.75797991439177L43.445454545454545,43.447973096007246L43.69090909090909,43.94622487371484L43.93636363636364,44.32311232956894L44.18181818181818,44.711846013935656L44.42727272727273,45.942962131760055L44.67272727272728,47.14048079905061L44.918181818181814,45.8575071285143L45.163636363636364,46.25176102079976L45.40909090909091,48.01280098163991L45.654545454545456,48.697902834980596L45.900000000000006,49.32048904041045L46.14545454545454,49.27516112464966L46.39090909090909,48.87475628588487L46.63636363636364,49.149211454539284L46.88181818181818,48.87243534703887L47.12727272727273,48.818920461361074L47.37272727272727,51.141288328618856L47.61818181818182,51.89796168874403L47.86363636363637,51.821110135846624L48.10909090909091,51.331516805121396L48.35454545454545,51.55681847069047L48.6,51.96359434120612L48.845454545454544,50.61008155471647L49.09090909090909,51.36397794235414L49.336363636363636,51.559971759988684L49.58181818181818,51.80718296728416L49.82727272727273,51.338222315951214L50.07272727272727,54.15692485470579L50.31818181818182,53.44245787538672L50.56363636363637,53.08178732441418L50.809090909090905,53.01800543942889L51.054545454545455,53.50414894042625L51.3,55.14375147071773L51.54545454545455,55.36046012169679L51.79090909090909,54.480344676533704L52.03636363636363,55.53403572923233L52.28181818181818,55.179184698814254L52.52727272727273,55.78954639550203L52.77272727272727,54.91433291417779L53.018181818181816,56.21353979360333L53.263636363636365,56.52622105314731L53.50909090909091,57.39266845203444L53.75454545454546,58.286308255405345L54,58.102827650456135L54.24545454545454,58.71967619135344L54.49090909090909,60.2572300652038L54.736363636363635,58.794486808847736L54.981818181818184,60.075000977992204L55.227272727272734,60.29603020826639L55.47272727272727,60.67094461553545L55.71818181818182,61.70624497845269L55.96363636363636,60.159824434442655L56.20909090909091,59.22712254409123L56.45454545454545,59.840956995013315L56.699999999999996,59.67381102173722L56.945454545454545,60.20013571090112L57.190909090909095,60.32183994129177L57.43636363636364,60.797044495031855L57.68181818181818,62.40343227452267L57.92727272727272,62.06493518522032L58.17272727272727,64.12173373020623L58.41818181818182,63.652713129567175L58.663636363636364,63.040048931193255L58.90909090909091,60.614672790639545L59.154545454545456,62.91923648646758L59.4,64.32485677537278L59.64545454545455,64.20025675681858L59.8909090909091,65.17034436413589L60.13636363636363,64.9990555571634L60.38181818181818,64.54949022530592L60.627272727272725,63.3620491749535L60.872727272727275,63.82719524552276L61.11818181818182,65.36844652693291L61.36363636363636,67.00379151637394L61.60909090909091,65.7602909499328L61.85454545454546,66.39263575853612L62.1,65.93646701975236L62.345454545454544,64.78889518696572L62.590909090909086,66.41017971846384L62.836363636363636,66.42928388039748L63.081818181818186,66.54654171766222L63.32727272727273,65.78898287562629L63.57272727272727,66.2535074538692L63.81818181818182,66.89861698071387L64.06363636363636,67.80031903999638L64.30909090909091,69.39326355055977L64.55454545454546,70.38344788613976L64.8,70.83016569435253L65.04545454545455,71.36808599407901L65.2909090909091,70.50694271604026L65.53636363636363,69.78268615304223L65.78181818181818,69.66245880500117L66.02727272727273,70.55004608551592L66.27272727272727,70.96289099949014L66.51818181818182,71.66123702237365L66.76363636363637,72.67723483129143L67.0090909090909,69.768422790615L67.25454545454545,69.68005062399835L67.5,70.61183988714427L67.74545454545455,70.28748261728411L67.9909090909091,72.6095913246457L68.23636363636363,72.73127927751447L68.48181818181818,74.34300814871472L68.72727272727272,73.81864059125799L68.97272727272727,73.8208698086899L69.21818181818182,73.2567103742609L69.46363636363637,73.19141839000066L69.7090909090909,73.41462119849015L69.95454545454545,73.22506886652728L70.2,74.37498259611986L70.44545454545455,74.17519595880329L70.6909090909091,73.20826680727937L70.93636363636364,75.85981320465129L71.18181818181817,75.71340115632239L71.42727272727272,73.98673310573635L71.67272727272727,74.5288853220794L71.91818181818182,75.5823982851028L72.16363636363636,74.76138457417227L72.4090909090909,75.80085660780404L72.65454545454546,76.70521653967245L72.9,75.89170614700349L73.14545454545456,75.46490040585626L73.39090909090909,76.18025367846137L73.63636363636363,75.81805692981075L73.88181818181818,77.91061859541281L74.12727272727273,77.90887045499659L74.37272727272727,78.0106384992636L74.61818181818182,77.87268201784873L74.86363636363636,78.41170941864492L75.10909090909091,78.90840614157669L75.35454545454546,79.18443717062218L75.60000000000001,79.67643877186406L75.84545454545454,79.07296190668146L76.09090909090908,79.83277437367168L76.33636363636363,79.78405450152238L76.58181818181818,80.57993132311412L76.82727272727273,80.60143636726325L77.07272727272728,80.21823380085166L77.31818181818183,79.8224124207365L77.56363636363636,78.56430050371421L77.80909090909091,78.46281275045963L78.05454545454545,81.38071749091854L78.3,80.88940699983067L78.54545454545455,81.00394203498834L78.79090909090908,82.33098215221472L79.03636363636363,81.82292622325106L79.28181818181818,82.03995320036742L79.52727272727273,81.8662981018056L79.77272727272728,82.43740585755721L80.01818181818183,83.10848282707039L80.26363636363637,83.0674228431178L80.5090909090909,83.78949045579716L80.75454545454545,83.48417175566713L81,83.82624193771923L81.24545454545455,84.49871271967166L81.49090909090908,85.1627039645542L81.73636363636363,85.34990155197666L81.98181818181818,84.5078031574988L82.22727272727273,83.0502896087188L82.47272727272728,83.45637693375352L82.7181818181818,84.46738698161194L82.96363636363635,84.25485459178255L83.2090909090909,85.46643981028971L83.45454545454545,84.36990474331547L83.7,83.79803935037411L83.94545454545455,83.40093833360343L84.19090909090909,85.13714469762607L84.43636363636364,86.57351190946947L84.68181818181819,86.83665993328906L84.92727272727274,86.20524845755978L85.17272727272727,86.8564034291862L85.41818181818181,86.09841912809472L85.66363636363636,87.0365664460757L85.9090909090909,87.52000030649513L86.15454545454546,87.03257174085535L86.4,86.82662549815426L86.64545454545456,88.4424713390634L86.89090909090909,88.34992048151504L87.13636363636364,87.65832355189288L87.38181818181818,88.45838563889136L87.62727272727273,87.28749166279952L87.87272727272727,86.90363760094705L88.11818181818181,87.137106672368L88.36363636363636,88.66195467222046L88.60909090909091,88.91222822568169L88.85454545454546,88.95280262931632L89.10000000000001,89.91351820780415L89.34545454545456,90.8205261638432L89.5909090909091,91.35909819016327L89.83636363636363,92.71092188223068L90.08181818181818,92.09609383371878L90.32727272727273,91.08607076206073L90.57272727272728,91.57437240458668L90.81818181818181,91.6254847641146L91.06363636363636,92.18279669148768L91.30909090909091,92.58534394832823L91.55454545454546,92.34422109043389L91.80000000000001,91.7551911292692L92.04545454545453,90.84480246955927L92.29090909090908,92.78165596810392L92.53636363636363,92.78478594203511L92.78181818181818,92.90831004889277L93.02727272727273,92.1744821442399L93.27272727272728,91.48876930207324L93.51818181818182,92.58875623303837L93.76363636363637,93.15752489162578L94.00909090909092,92.71257994972795L94.25454545454546,91.97419254478238L94.5,91.70021775281464L94.74545454545454,92.00376178572199L94.99090909090908,94.60356944433443L95.23636363636363,95.76805639805984L95.48181818181818,95.77458230688816L95.72727272727273,96.18393605859774L95.97272727272727,96.67579003086344L96.21818181818182,95.9024069022142L96.46363636363637,96.89741675648382L96.7090909090909,95.7641526517685L96.95454545454545,95.11495439048015L97.2,96.08464822237569L97.44545454545454,95.00991597810315L97.69090909090909,94.39244753958323L97.93636363636364,94.21918400594154L98.18181818181819,94.89270512253273L98.42727272727274,94.15641408827767L98.67272727272727,94.9934968722601L98.91818181818182,94.16811571934079L99.16363636363636,93.82100127534476L99.4090909090909,95.03312822166382L99.65454545454546,95.78337133787777L99.9,96.5762833841767L100.14545454545454,96.0772161753036L100.39090909090909,97.05208654718851L100.63636363636364,99.27343181625811L100.88181818181819,99.69897121213451L101.12727272727274,99.21877186420198L101.37272727272726,99.1232555617793L101.61818181818181,99.05424239748685L101.86363636363636,99.53465645294496L102.10909090909091,100.32028226017529L102.35454545454546,99.36005643690463L102.6,99.30695818149675L102.84545454545454,99.9655505901683L103.0909090909091,99.49067034367646L103.33636363636364,99.02514319987904L103.58181818181818,98.79115509720819L103.82727272727273,99.18719653923618L104.07272727272726,100.19691673789912L104.31818181818181,99.29610855287824L104.56363636363636,100.10676925614295L104.80909090909091,99.86352042587399L105.05454545454546,99.60956319817078L105.3,100.56209468360917L105.54545454545455,99.99762540442183L105.7909090909091,101.05567612388283L106.03636363636363,101.86350134260225L106.28181818181818,101.23018872722412L106.52727272727273,102.12010982460795L106.77272727272727,103.33764266485366L107.01818181818182,103.53373039129556L107.26363636363637,103.96691911437023L107.50909090909092,103.09150776169355L107.75454545454546,104.21385689752655L108,103.24926153418744L108.24545454545454,102.3113954563415L108.49090909090908,103.03295376893735L108.73636363636363,103.07322839875948L108.98181818181818,102.38694363278653L109.22727272727272,103.38353128209307L109.47272727272727,104.02427153192896L109.71818181818182,103.1998953171385L109.96363636363637,103.25225178992716L110.20909090909092,102.49922266361693L110.45454545454547,102.689249026956L110.69999999999999,101.77675066156823L110.94545454545454,102.76063938325103L111.19090909090909,105.40020466568254L111.43636363636364,107.20376372767797L111.68181818181819,107.69046954933428L111.92727272727272,107.48365153987832L112.17272727272727,107.24736682464639L112.41818181818182,106.40126724177574L112.66363636363637,107.86998805700308L112.9090909090909,106.52345741352399L113.15454545454544,105.94122315004226L113.39999999999999,105.65930194751908L113.64545454545454,106.1484881412232L113.89090909090909,106.19871918658606L114.13636363636364,105.05219812138628L114.38181818181819,106.8832404312119L114.62727272727273,105.22110782895781L114.87272727272727,105.18043079765128L115.11818181818182,107.07975438871512L115.36363636363636,106.11744644859911L115.60909090909091,105.05952468179264L115.85454545454544,105.39292321274962L116.1,104.67922655147486L116.34545454545454,106.16946827358761L116.5909090909091,107.62756126623498L116.83636363636364,109.62502167035917L117.08181818181819,110.57336728112674L117.32727272727273,110.79801316895515L117.57272727272726,110.8420363091462L117.81818181818181,110.9891665266501L118.06363636363636,110.23571159163399L118.30909090909091,109.83140317034294L118.55454545454545,111.29812544137093L118.8,111.48770358402531L119.04545454545455,109.60319092524541L119.2909090909091,109.14852103167091L119.53636363636365,108.55426669462511L119.7818181818182,108.45666421748501L120.02727272727272,108.81230834737168L120.27272727272727,108.5399128088963L120.51818181818182,109.73260569564718L120.76363636363637,108.83110597345743L121.00909090909092,109.68125938326047L121.25454545454545,108.32194290835706L121.5,108.85803297707683L121.74545454545455,108.9756909018439L121.9909090909091,111.73419601842762L122.23636363636363,113.11943069283258L122.48181818181817,115.0004885884984L122.72727272727272,115.5427601186877L122.97272727272727,114.44712171084717L123.21818181818182,114.35979005444992L123.46363636363637,113.8996457426323L123.70909090909092,113.14409661864318L123.95454545454545,113.39842732078695L124.2,112.74851743123506L124.44545454545455,112.62342829116764L124.69090909090909,112.82413058101827L124.93636363636364,112.92035814784691L125.18181818181817,112.72313764056834L125.42727272727272,112.65300390610587L125.67272727272727,112.09928116602485L125.91818181818182,112.70271629389343L126.16363636363637,112.27500254092345L126.40909090909092,113.19550659220599L126.65454545454546,113.51884941923241L126.89999999999999,113.30589105180385L127.14545454545454,113.55700895158068L127.39090909090909,116.3537534012815L127.63636363636364,117.78096920402825L127.88181818181818,118.75181513898578L128.12727272727273,118.58889803919092L128.37272727272727,118.61089767215569L128.61818181818182,118.88052441487372L128.86363636363637,117.85387372748758L129.10909090909092,117.81472486449576L129.35454545454544,117.89847379604592L129.6,117.56114384395197L129.84545454545454,117.33127658447648L130.0909090909091,117.10455943979528L130.33636363636364,115.42820424828463L130.5818181818182,116.30808832479005L130.82727272727274,116.72020022682565L131.07272727272726,117.33256970250304L131.3181818181818,117.091614169663L131.56363636363636,115.58084306882967L131.8090909090909,116.19389887042405L132.05454545454546,115.46194422746962L132.3,116.29213419478475L132.54545454545453,115.78692470687885L132.79090909090908,85.41652955883245L133.03636363636363,70.3336964634378L133.28181818181818,64.56504104603697L133.52727272727273,59.98770348525214L133.77272727272728,59.03587880744601L134.0181818181818,55.638309984399385L134.26363636363635,56.90300075351806L134.5090909090909,56.86224673527789L134.75454545454545,56.67308276226382L135,55.66221443015493L135.24545454545452,55.07145354920068L135.4909090909091,56.355956731876375L135.73636363636362,57.380043535072545L135.9818181818182,58.40111052746278L136.22727272727272,58.54325428513057L136.47272727272727,58.40276382401916L136.71818181818182,58.68857962564374L136.96363636363637,60.22253808619392L137.20909090909092,59.502228904669906L137.45454545454544,59.41806616013481L137.7,58.833043942601876L137.94545454545454,60.57586553244512L138.1909090909091,61.47188172992573L138.43636363636364,62.230924004219645L138.6818181818182,62.43762499489186L138.92727272727274,62.168364086138L139.1727272727273,60.94564810353273L139.4181818181818,61.33996844537437L139.66363636363636,59.90465322555259L139.9090909090909,60.324968117818344L140.15454545454546,62.27369038634933L140.4,61.817957169417795L140.64545454545453,61.953095895195375L140.8909090909091,61.467285553086256L141.13636363636363,61.73957562414911L141.3818181818182,61.357217472059716L141.62727272727273,62.828205534214064L141.87272727272727,63.37893696223264L142.11818181818182,62.445676677628114L142.36363636363635,61.93914287118703L142.60909090909092,63.41788294158985L142.85454545454544,62.70825083942236L143.1,64.17151755354688L143.34545454545454,64.11107731346691L143.5909090909091,65.45817732666214L143.83636363636364,67.22554759458905L144.0818181818182,68.11000427280679L144.3272727272727,67.51591509440973L144.57272727272726,67.66146282957565L144.8181818181818,68.59888106404233L145.06363636363636,67.62212979143499L145.3090909090909,65.66998348496286L145.55454545454546,65.62649131064046L145.8,65.17492682429267L146.04545454545453,64.85096314691047L146.2909090909091,64.98405589329545L146.53636363636363,64.64188759453774L146.78181818181818,64.49368569753629L147.02727272727273,65.59788460543083L147.27272727272725,65.51673470037288L147.51818181818183,63.1173411277577L147.76363636363635,63.56047777665796L148.00909090909093,63.5709455401597L148.25454545454545,63.7407571982247L148.5,63.33414214318408L148.74545454545455,64.05677183764607L148.99090909090907,64.97847736275833L149.23636363636365,65.24129845031989L149.48181818181817,64.53558739240486L149.72727272727272,64.5229153515917L149.97272727272727,65.08187777076115L150.21818181818182,65.11172497760896L150.46363636363637,65.31962278182294L150.70909090909092,65.9493102537745L150.95454545454544,65.78181492728912L151.20000000000002,65.60250942375019L151.44545454545454,64.30224203474049L151.6909090909091,66.69856527581756L151.93636363636364,67.21748066516592L152.18181818181816,67.9162433138168L152.42727272727274,66.63389809726281L152.67272727272726,68.17110098805462L152.91818181818184,68.95003843929052L153.16363636363636,68.86663396514679L153.40909090909093,68.4950887251602L153.65454545454546,68.0074301740027L153.89999999999998,68.68443533065896L154.14545454545456,68.20245062606595L154.39090909090908,70.02731860131985L154.63636363636365,67.62801860948075L154.88181818181818,68.46267962833771L155.12727272727273,67.93852842297653L155.37272727272727,66.33050814591294L155.61818181818182,66.78737053467303L155.86363636363637,66.2399633478729L156.1090909090909,66.600944157447L156.35454545454544,66.51724934123114L156.6,67.49940700691596L156.84545454545454,68.3066310562753L157.0909090909091,69.70646825085281L157.33636363636364,69.94213496183926L157.58181818181816,70.27825829109892L157.82727272727274,70.09219479774062L158.07272727272726,70.66387067836031L158.3181818181818,69.17438918710651L158.56363636363636,70.92604676049945L158.80909090909088,70.93101312397933L159.05454545454546,69.72765523003946L159.29999999999998,71.3756112054703L159.54545454545456,70.5317395912132L159.79090909090908,70.24880520783628L160.03636363636366,70.10320752052309L160.28181818181818,69.60634046308901L160.52727272727273,69.51854546971742L160.77272727272728,69.4722303917104L161.0181818181818,69.9980246634431L161.26363636363638,69.08910785871538L161.5090909090909,70.20856639598486L161.75454545454545,70.50500795483667L162,69.38006859348086L162.24545454545455,69.76305837771272L162.4909090909091,70.81572718444235L162.73636363636365,69.97319606068484L162.98181818181817,71.18606655074807L163.22727272727272,70.44484550899277L163.47272727272727,71.13082131830461L163.71818181818182,70.55772541434315L163.96363636363637,70.88629444251181L164.2090909090909,71.77553460701321L164.45454545454547,71.80307281166L164.7,72.3510068620587L164.94545454545457,71.69616229761077L165.1909090909091,71.07855909613737L165.4363636363636,73.07489688235395L165.6818181818182,72.61989331538929L165.9272727272727,72.11587523289703L166.1727272727273,72.19098191020164L166.4181818181818,71.74456942413613L166.66363636363639,71.46904056271532L166.9090909090909,71.78599058227474L167.15454545454546,70.44743683392572L167.4,69.64093651067259L167.64545454545453,69.73296158021228L167.8909090909091,72.23055900094775L168.13636363636363,71.63050241391039L168.38181818181818,71.46372956488455L168.62727272727273,71.49216965490753L168.87272727272727,72.80085738799566L169.11818181818182,72.2088131575788L169.36363636363637,71.86245626730842L169.6090909090909,72.42649055164203L169.85454545454547,72.09139658269699L170.1,71.35460034599714L170.34545454545454,71.50107911039426L170.5909090909091,71.91771047705922L170.83636363636361,72.04382672707582L171.0818181818182,72.98534618876404L171.3272727272727,71.80164091027991L171.5727272727273,73.26654555288738L171.8181818181818,73.93585754566065L172.0636363636364,74.2805925740217L172.3090909090909,74.2943152355474L172.55454545454543,72.13081996137738L172.8,71.9052403219414L173.04545454545453,72.54071085846748L173.2909090909091,71.80590674073025L173.53636363636363,71.2727166591426L173.78181818181818,72.28523670089106L174.02727272727273,72.25189640466216L174.27272727272728,73.30334107322166L174.51818181818183,72.84520877635988L174.76363636363635,71.51449020645924L175.0090909090909,73.20496947947471L175.25454545454545,74.12620482944175L175.5,73.50650126236675L175.74545454545455,72.03193766392252L175.9909090909091,71.65146156207368L176.23636363636362,73.04322347023927L176.4818181818182,72.20091019693683L176.72727272727272,73.19625201055158L176.97272727272727,72.88737182428417L177.21818181818182,74.21912388948405L177.46363636363634,74.474098035653L177.70909090909092,73.62212710155981L177.95454545454544,75.00205071314538L178.20000000000002,73.4867086990248L178.44545454545454,73.74667278647033L178.69090909090912,73.83152044302533L178.93636363636364,73.61617370158403L179.1818181818182,75.15423956828207L179.42727272727274,74.67636143970803L179.67272727272726,73.00485064435628L179.91818181818184,73.98663496339046L180.16363636363636,74.09779009439781L180.4090909090909,72.80308673024209L180.65454545454546,74.0835755097001L180.9,73.63609042654483L181.14545454545456,73.10694592421193L181.3909090909091,73.52063611934095L181.63636363636363,72.75875975526712L181.88181818181818,72.81881273237724L182.12727272727273,74.0395154437837L182.37272727272727,74.47413449230838L182.61818181818182,73.56768493878492L182.86363636363635,74.35353323291872L183.10909090909092,73.53748105286603L183.35454545454544,73.07599033307461L183.60000000000002,73.83113480660357L183.84545454545454,74.5337830606284L184.09090909090907,75.78548464371404L184.33636363636364,77.77454487038203L184.58181818181816,77.54695074508301L184.82727272727274,77.20771953422744L185.07272727272726,76.45014609778366L185.31818181818184,75.95293976216364L185.56363636363636,76.51685454132195L185.8090909090909,75.83285977325787L186.05454545454546,75.96804850139482L186.29999999999998,75.00321843473525L186.54545454545456,75.63314268845457L186.79090909090908,74.38509670628176L187.03636363636363,73.87467321756954L187.28181818181818,73.72394467865242L187.52727272727273,72.88588766630289L187.77272727272728,73.87311188098181L188.01818181818183,73.35154748227394L188.26363636363635,73.3803892888417L188.50909090909093,74.5029474189915L188.75454545454545,73.32950831435711L189,74.74980463266832L189.24545454545455,73.80531350400508L189.49090909090907,73.86771182357782L189.73636363636365,74.43509202736868L189.98181818181817,74.17403533075117L190.22727272727275,74.58915217039396L190.47272727272727,75.15702805545737L190.71818181818182,74.11263787632363L190.96363636363637,73.87724822366074L191.2090909090909,74.45476070406339L191.45454545454547,74.24725663065115L191.7,73.85496334888244L191.94545454545454,74.47172559566647L192.1909090909091,73.93564751470136L192.43636363636364,73.50606025238714L192.6818181818182,74.5721385429007L192.92727272727274,74.44071642402479L193.1727272727273,74.93421586550383L193.4181818181818,76.26126260874932L193.66363636363636,76.72858450873382L193.9090909090909,77.20642858998373L194.15454545454546,77.51101708239878L194.4,75.77447326296688L194.64545454545456,75.34385051751968L194.89090909090908,75.9807441834283L195.13636363636365,74.99261815027972L195.38181818181818,74.34691816321414L195.62727272727273,75.974520925644L195.87272727272727,75.67320126422929L196.1181818181818,77.45030999151986L196.36363636363637,76.90348757378047L196.6090909090909,77.38982765446448L196.85454545454547,76.82738699386L197.1,77.28473410636961L197.34545454545454,73.66230362216918L197.5909090909091,74.32288111836434L197.83636363636364,75.65372740003082L198.0818181818182,76.23598396913505L198.3272727272727,77.57396608130458L198.57272727272726,76.84990659892537L198.8181818181818,74.89550491405605L199.06363636363636,75.90213139629573L199.3090909090909,76.54362678394443L199.55454545454546,77.50027873219305L199.8,76.74749170602115L200.04545454545456,77.43489216862389L200.29090909090908,76.68089464690522L200.53636363636363,76.485426571829L200.78181818181818,76.70181655967733L201.02727272727273,77.45099426666688L201.27272727272728,77.26822886410501L201.5181818181818,76.91088306306419L201.76363636363638,76.38595688418086L202.0090909090909,77.15310980451699L202.25454545454548,78.01851568725897L202.5,79.12214517548907L202.74545454545452,79.091128435735L202.9909090909091,79.1442394688479L203.23636363636362,77.87593683753377L203.4818181818182,76.70409263951868L203.72727272727272,76.729751738427L203.97272727272727,76.95829652860475L204.21818181818182,77.97128088596835L204.46363636363637,76.98577562275646L204.70909090909092,76.53770242622457L204.95454545454544,76.25900505857066L205.2,76.74229564864005L205.44545454545454,77.9231005628457L205.6909090909091,79.17863708688485L205.93636363636364,78.84564703241823L206.1818181818182,79.26597218128454L206.42727272727274,79.65810631867785L206.6727272727273,78.52791626167401L206.9181818181818,78.8676936778335L207.16363636363636,77.49582993378417L207.4090909090909,76.60567042030632L207.65454545454546,77.99636934279049L207.9,79.65416324944123L208.14545454545453,79.1608664452591L208.3909090909091,78.39388266289853L208.63636363636363,78.92392165331998L208.8818181818182,79.35144796997773L209.12727272727273,79.33344063180965L209.37272727272727,79.91601529294854L209.61818181818182,78.50348241129826L209.86363636363635,78.27721227136115L210.10909090909092,77.1063325612087L210.35454545454544,77.0361153423338L210.6,75.841868278845L210.84545454545454,76.22408771146983L211.0909090909091,77.05016650932819L211.33636363636364,76.56514862448287L211.5818181818182,78.05008910567837L211.8272727272727,79.32861727323535L212.07272727272726,78.29915013113371L212.3181818181818,79.1846456246952L212.56363636363636,78.84108852956066L212.8090909090909,79.18209079598681L213.05454545454546,79.54015365549016L213.3,79.87384233929296L213.54545454545453,78.28132183694481L213.7909090909091,78.54490194796435L214.03636363636363,78.00777609503703L214.28181818181818,77.1545369890174L214.52727272727273,78.3298443996649L214.77272727272725,79.28864908045612L215.01818181818183,79.96753007178249L215.26363636363635,78.94248767877284L215.50909090909093,79.62338764344092L215.75454545454545,80.12709018729967L216,80.43262577521328L216.24545454545455,81.01916888689061L216.49090909090907,80.39069772454049L216.73636363636365,80.92793915900936L216.98181818181817,80.85786093179033L217.22727272727272,81.33333615711608L217.47272727272727,81.5375753179269L217.71818181818182,80.43085273442401L217.96363636363637,78.93514404498181L218.20909090909092,77.9652685836386L218.45454545454544,77.78469970047335L218.70000000000002,79.14004126051256L218.94545454545454,78.24626720355376L219.1909090909091,79.14931631113761L219.43636363636364,80.59861030160428L219.68181818181816,80.61141689569813L219.92727272727274,79.65834706450684L220.17272727272726,80.1340997130638L220.41818181818184,81.33195412712001L220.66363636363636,80.09992485594952L220.90909090909093,80.27559277083346L221.15454545454546,80.54259549667866L221.39999999999998,81.13102095885425L221.64545454545456,81.93029013178395L221.89090909090908,80.73976520837334L222.13636363636365,80.6934863684128L222.38181818181818,80.33922033923893L222.62727272727273,79.73427042722611L222.87272727272727,79.97998827097578L223.11818181818182,80.03426645418482L223.36363636363637,80.85336550605582L223.6090909090909,79.99108285787709L223.85454545454544,80.2927185849239L224.1,80.11915715886673L224.34545454545454,80.17747876638103L224.5909090909091,79.5581201063141L224.83636363636364,79.58537286418131L225.08181818181816,80.16247608708899L225.32727272727274,81.32351877631014L225.57272727272726,80.98319804980208L225.8181818181818,80.68228825626176L226.06363636363636,81.39089661927191L226.30909090909088,82.19623349959355L226.55454545454546,80.1188446453494L226.79999999999998,80.60786849305902L227.04545454545456,81.46819759851402L227.29090909090908,80.66323996885409L227.53636363636366,81.55367578936797L227.78181818181818,81.3689113013338L228.02727272727273,80.95158678768061L228.27272727272728,82.15267775668761L228.5181818181818,80.13557794980282L228.76363636363638,80.6620811745323L229.0090909090909,82.1794770445215L229.25454545454545,82.89137179821006L229.5,82.66800542683059L229.74545454545455,81.0501791456164L229.9909090909091,81.25853505788626L230.23636363636365,82.25393730816093L230.48181818181817,84.41199750390125L230.72727272727272,83.38788556919923L230.97272727272727,83.20434479633826L231.21818181818182,82.8746164906667L231.46363636363637,82.03816292369966L231.7090909090909,81.81429194023968L231.95454545454547,81.07216698078588L232.2,80.59922595654349L232.44545454545457,80.54257294166015L232.6909090909091,81.59877622501806L232.9363636363636,80.73737801646337L233.1818181818182,83.04411378605072L233.4272727272727,82.53425777940966L233.6727272727273,83.76020066894141L233.9181818181818,83.36733807353947L234.16363636363639,81.8975743171933L234.4090909090909,80.88920687377991L234.65454545454546,82.32935400558927L234.9,81.69679239082748L235.14545454545453,81.88440170156552L235.3909090909091,82.85475175431834L235.63636363636363,83.07819822125333L235.88181818181818,84.35090089148808L236.12727272727273,83.7791138493862L236.37272727272727,83.10979174290088L236.61818181818182,83.18966527085621L236.86363636363637,81.56951493150122L237.1090909090909,81.84626846280283L237.35454545454547,83.13250040814684L237.6,83.01695070150737L237.84545454545454,83.69160648709845L238.0909090909091,83.47525646566771L238.33636363636361,83.64083775231711L238.5818181818182,83.59194881907604L238.8272727272727,83.12085181968133L239.0727272727273,82.72502362482327L239.3181818181818,82.84931305174305L239.5636363636364,82.84275006942696L239.8090909090909,83.52778793932106L240.05454545454543,82.97949399578147L240.3,82.76674126836566L240.54545454545453,81.7138530166485" style="fill: none;" fill="none"></path></g></g></g></g><g opacity="0.2"><g><g><g><path stroke="rgb(255, 112, 67)" stroke-width="2px" d="M27.736363636363635,-1.5403056144714355L27.98181818181818,4.554114775224178L28.227272727272727,1.0085704109885398L28.472727272727273,6.998177333311588L28.71818181818182,6.8501537496393325L28.96363636363636,3.997099724682897L29.20909090909091,8.17316456274554L29.454545454545453,9.578853303735912L29.7,9.655223326249569L29.94545454545455,11.942253763025462L30.19090909090909,12.40964640270579L30.436363636363637,14.312820542942376L30.68181818181818,15.563058961521477L30.92727272727273,18.676309260455042L31.172727272727272,18.411811265078455L31.418181818181818,21.438949975100428L31.663636363636364,17.8860174525868L31.90909090909091,26.15172689611265L32.154545454545456,21.319360191171853L32.4,24.639276374470114L32.64545454545455,23.092990788546473L32.89090909090909,23.549908833070248L33.13636363636363,27.216730876402437L33.38181818181818,26.121122945438742L33.627272727272725,26.089978868311135L33.872727272727275,24.960314035415678L34.11818181818182,27.964333404194235L34.36363636363636,31.05863105167043L34.60909090909091,30.141766396435827L34.85454545454545,28.422379927201717L35.1,29.55237269401553L35.34545454545455,31.65611700578171L35.590909090909086,32.342608083378195L35.836363636363636,30.8205124464902L36.08181818181818,32.291595068844885L36.32727272727273,34.975194064053625L36.57272727272728,35.71305502544752L36.81818181818181,33.21243351156065L37.06363636363636,35.249838720668464L37.30909090909091,34.104876734993695L37.554545454545455,32.68683260137388L37.800000000000004,38.87577512047508L38.04545454545454,35.8181771365079L38.29090909090909,34.67998602173546L38.53636363636364,38.030004609714865L38.78181818181818,35.88254863565621L39.027272727272724,37.870802337473094L39.27272727272727,40.78376217321917L39.518181818181816,35.51377729936081L39.763636363636365,37.50497276132759L40.009090909090915,39.8868821967732L40.25454545454545,40.4852651466023L40.5,38.781117959456026L40.74545454545454,43.01201527768916L40.99090909090909,41.718576387925594L41.23636363636364,41.878608140078455L41.48181818181818,43.0142722346566L41.72727272727273,43.75561508265409L41.972727272727276,42.48911499977115L42.21818181818182,44.61249676617709L42.46363636363637,42.427386262200116L42.709090909090904,45.86419159715828L42.95454545454545,44.44394837726247L43.2,40.483818379315466L43.445454545454545,44.482962868430405L43.69090909090909,44.69360254027629L43.93636363636364,44.88844351335007L44.18181818181818,45.29494654048574L44.42727272727273,47.789636308496654L44.67272727272728,48.93675879998642L44.918181818181814,43.93304662270981L45.163636363636364,46.843141859227984L45.40909090909091,50.654360922900125L45.654545454545456,49.725555614991634L45.900000000000006,50.25436834855515L46.14545454545454,49.20716925100848L46.39090909090909,48.27414902773771L46.63636363636364,49.56089420752093L46.88181818181818,48.457271185788244L47.12727272727273,48.73864813284442L47.37272727272727,54.624840129505515L47.61818181818182,53.032971728931784L47.86363636363637,51.70583280650054L48.10909090909091,50.5971268090335L48.35454545454545,51.89477096904409L48.6,52.573758146979614L48.845454545454544,48.57981237498197L49.09090909090909,52.49482252381067L49.336363636363636,51.853962486440494L49.58181818181818,52.17799977822739L49.82727272727273,50.634781338951825L50.07272727272727,58.38497866283764L50.31818181818182,52.370757406408146L50.56363636363637,52.54078149795534L50.809090909090905,52.92233261195098L51.054545454545455,54.23336419192229L51.3,57.6031552661549L51.54545454545455,55.68552309816535L51.79090909090909,53.16017150878908L52.03636363636363,57.11457230828027L52.28181818181818,54.646908153187155L52.52727272727273,56.70508894053374L52.77272727272727,53.601512692191406L53.018181818181816,58.16235011274165L53.263636363636365,56.99524294246328L53.50909090909091,58.692339550365105L53.75454545454546,59.62676796046172L54,57.82760674303229L54.24545454545454,59.644949002699434L54.49090909090909,62.56356087597935L54.736363636363635,56.60037192431365L54.981818181818184,61.995772231708884L55.227272727272734,60.62757405367766L55.47272727272727,61.23331622643906L55.71818181818182,63.259195522828534L55.96363636363636,57.840193618427634L56.20909090909091,57.82806970856409L56.45454545454545,60.761708671396434L56.699999999999996,59.42309206182307L56.945454545454545,60.98962274464695L57.190909090909095,60.504396286877736L57.43636363636364,61.50985132564199L57.68181818181818,64.81301394375889L57.92727272727272,61.557189551266774L58.17272727272727,67.2069315476851L58.41818181818182,62.949182228608564L58.663636363636364,62.12105263363232L58.90909090909091,56.976608579809024L59.154545454545456,66.37608203020964L59.4,66.43328720873053L59.64545454545455,64.01335672898728L59.8909090909091,66.62547577511181L60.13636363636363,64.74212234670466L60.38181818181818,63.875142227519646L60.627272727272725,61.5808875994249L60.872727272727275,64.52491435137664L61.11818181818182,67.68032344904815L61.36363636363636,69.45680900053544L61.60909090909091,63.89504010027106L61.85454545454546,67.3411529714411L62.1,65.2522139115767L62.345454545454544,63.06753743778576L62.590909090909086,68.84210651571101L62.836363636363636,66.45794012329797L63.081818181818186,66.7224284735593L63.32727272727273,64.65264461257243L63.57272727272727,66.95029432123359L63.81818181818182,67.86628127098085L64.06363636363636,69.15287212892014L64.30909090909091,71.78268031640488L64.55454545454546,71.86872438950974L64.8,71.5002424066717L65.04545454545455,72.17496644366872L65.2909090909091,69.2152277989821L65.53636363636363,68.69630130854522L65.78181818181818,69.48211778293957L66.02727272727273,71.881427006288L66.27272727272727,71.58215837045151L66.51818181818182,72.7087560566989L66.76363636363637,74.20123154466803L67.0090909090909,65.40520472960038L67.25454545454545,69.54749237407339L67.5,72.00952378186314L67.74545454545455,69.80094671249391L67.9909090909091,76.09275438568811L68.23636363636363,72.91381120681764L68.48181818181818,76.76060145551509L68.72727272727272,73.03208925507288L68.97272727272727,73.82421363483776L69.21818181818182,72.41047122261743L69.46363636363637,73.0934804136103L69.7090909090909,73.74942541122438L69.95454545454545,72.94074036858301L70.2,76.09985319050877L70.44545454545455,73.87551600282843L70.6909090909091,71.75787307999353L70.93636363636364,79.83713280070913L71.18181818181817,75.49378308382903L71.42727272727272,71.39673102985729L71.67272727272727,75.34211364659397L71.91818181818182,77.16266772963786L72.16363636363636,73.52986400777644L72.4090909090909,77.36006465825169L72.65454545454546,78.06175643747504L72.9,74.67144055800004L73.14545454545456,74.82469179413538L73.39090909090909,77.25328358736907L73.63636363636363,75.27476180683483L73.88181818181818,81.0494610938159L74.12727272727273,77.90624824437229L74.37272727272727,78.16329056566413L74.61818181818182,77.66574729572643L74.86363636363636,79.22025051983921L75.10909090909091,79.65345122597437L75.35454545454546,79.59848371419041L75.60000000000001,80.41444117372687L75.84545454545454,78.16774660890754L76.09090909090908,80.97249307415704L76.33636363636363,79.71097469329835L76.58181818181818,81.77374655550177L76.82727272727273,80.63369393348695L77.07272727272728,79.6434299512343L77.31818181818183,79.22868035056375L77.56363636363636,76.67713262818079L77.80909090909091,78.31058112057774L78.05454545454545,85.7575746016069L78.3,80.15244126319887L78.54545454545455,81.17574458772486L78.79090909090908,84.32154232805426L79.03636363636363,81.06084232980555L79.28181818181818,82.36549366604198L79.52727272727273,81.60581545396286L79.77272727272728,83.29406749118459L80.01818181818183,84.11509828134018L80.26363636363637,83.00583286718889L80.5090909090909,84.87259187481622L80.75454545454545,83.0261937054721L81,84.33934721079741L81.24545454545455,85.50741889260034L81.49090909090908,86.15869083187799L81.73636363636363,85.63069793311034L81.98181818181818,83.24465556578203L82.22727272727273,80.86401928554882L82.47272727272728,84.06550792130558L82.7181818181818,85.98390205339952L82.96363636363635,83.93605600703847L83.2090909090909,87.28381763805044L83.45454545454545,82.72510214285417L83.7,82.94024126096207L83.94545454545455,82.80528680844742L84.19090909090909,87.74145424365999L84.43636363636364,88.72806272723459L84.68181818181819,87.23138196901841L84.92727272727274,85.25813124396585L85.17272727272727,87.83313588662583L85.41818181818181,84.96144267645751L85.66363636363636,88.44378742304717L85.9090909090909,88.24515109712428L86.15454545454546,86.30142889239572L86.4,86.51770613410257L86.64545454545456,90.86624010042712L86.89090909090909,88.21109419519252L87.13636363636364,86.62092815745962L87.38181818181818,89.65847876938908L87.62727272727273,85.53115069866182L87.87272727272727,86.32785650816832L88.11818181818181,87.48731027949941L88.36363636363636,90.94922667199917L88.60909090909091,89.28763855587353L88.85454545454546,89.01366423476827L89.10000000000001,91.35459157553588L89.34545454545456,92.18103809790179L89.5909090909091,92.16695622964339L89.83636363636363,94.73865742033179L90.08181818181818,91.17385176095097L90.32727272727273,89.57103615457363L90.57272727272728,92.30682486837561L90.81818181818181,91.70215330340646L91.06363636363636,93.01876458254729L91.30909090909091,93.18916483358905L91.55454545454546,91.98253680359234L91.80000000000001,90.8716461875222L92.04545454545453,89.47921947999434L92.29090909090908,95.6869362159209L92.53636363636363,92.78948090293191L92.78181818181818,93.09359620917928L93.02727272727273,91.07374028726058L93.27272727272728,90.46020003882323L93.51818181818182,94.2387366294861L93.76363636363637,94.0106778795069L94.00909090909092,92.0451625368812L94.25454545454546,90.86661143736407L94.5,91.28925556486304L94.74545454545454,92.45907783508302L94.99090909090908,98.50328093225306L95.23636363636363,97.51478682864797L95.48181818181818,95.78437117013065L95.72727272727273,96.7979666861621L95.97272727272727,97.41357098926198L96.21818181818182,94.74233220924032L96.46363636363637,98.38993153788827L96.7090909090909,94.0642564946955L96.95454545454545,94.14115699854766L97.2,97.53918897021902L97.44545454545454,93.39781761169435L97.69090909090909,93.46624488180335L97.93636363636364,93.95928870547903L98.18181818181819,95.90298679741947L98.42727272727274,93.05197753689507L98.67272727272727,96.24912104823373L98.91818181818182,92.93004398996182L99.16363636363636,93.30032960935073L99.4090909090909,96.85131864114241L99.65454545454546,96.90873601219872L99.9,97.76565145362508L100.14545454545454,95.32861536199397L100.39090909090909,98.51439210501586L100.63636363636364,102.6054497198625L100.88181818181819,100.33728030594914L101.12727272727274,98.4984728423032L101.37272727272726,98.97998110814528L101.61818181818181,98.95072265104815L101.86363636363636,100.25527753613213L102.10909090909091,101.4987209710208L102.35454545454546,97.91971770199864L102.6,99.22731079838493L102.84545454545454,100.95343920317565L103.0909090909091,98.77834997393869L103.33636363636364,98.32685248418288L103.58181818181818,98.44017294320194L103.82727272727273,99.78125870227815L104.07272727272726,101.71149703589354L104.31818181818181,97.94489627534693L104.56363636363636,101.32276031104003L104.80909090909091,99.49864718047057L105.05454545454546,99.22862735661595L105.3,101.99089191176675L105.54545454545455,99.1509214856408L105.7909090909091,102.64275220307438L106.03636363636363,103.07523917068136L106.28181818181818,100.28021980415691L106.52727272727273,103.45499147068371L106.77272727272727,105.16394192522223L107.01818181818182,103.82786198095843L107.26363636363637,104.61670219898225L107.50909090909092,101.77839073267852L107.75454545454546,105.89738060127605L108,101.80236848917876L108.24545454545454,100.90459633957256L108.49090909090908,104.11529123783113L108.73636363636363,103.13364034349269L108.98181818181818,101.35751648382708L109.22727272727272,104.8784127560529L109.47272727272727,104.9853819066828L109.71818181818182,101.96333099495281L109.96363636363637,103.33078649911015L110.20909090909092,101.36967897415163L110.45454545454547,102.97428857196462L110.69999999999999,100.40800311348656L110.94545454545454,104.23647246577524L111.19090909090909,109.35955258932982L111.43636363636364,109.9091023206711L111.68181818181819,108.42052828181875L111.92727272727272,107.17342452569441L112.17272727272727,106.89293975179847L112.41818181818182,105.1321178674698L112.66363636363637,110.07306927984412L112.9090909090909,104.50366144830531L113.15454545454544,105.0678717548197L113.39999999999999,105.23642014373434L113.64545454545454,106.88226743177935L113.89090909090909,106.27406575463036L114.13636363636364,103.33241652358663L114.38181818181819,109.62980389595033L114.62727272727273,102.72790892557666L114.87272727272727,105.11941525069152L115.11818181818182,109.92873977531087L115.36363636363636,104.6739845384251L115.60909090909091,103.47264203158294L115.85454545454544,105.8930210091851L116.1,103.6086815595627L116.34545454545454,108.40483085675673L116.5909090909091,109.81470075520603L116.83636363636364,112.62121227654545L117.08181818181819,111.99588569727813L117.32727272727273,111.13498200069775L117.57272727272726,110.90807101943277L117.81818181818181,111.20986185290597L118.06363636363636,109.10552918910982L118.30909090909091,109.22494053840639L118.55454545454545,113.49820884791289L118.8,111.77207079800694L119.04545454545455,106.77642193707554L119.2909090909091,108.46651619130915L119.53636363636365,107.66288518905641L119.7818181818182,108.31026050177489L120.02727272727272,109.34577454220165L120.27272727272727,108.13131950118326L120.51818181818182,111.5216450257735L120.76363636363637,107.4788563901728L121.00909090909092,110.95648949796504L121.25454545454545,106.28296819600193L121.5,109.6621680801565L121.74545454545455,109.15217778899454L121.9909090909091,115.8719536933032L122.23636363636363,115.19728270444003L122.48181818181817,117.82207543199712L122.72727272727272,116.35616741397166L122.97272727272727,112.80366409908642L123.21818181818182,114.22879256985405L123.46363636363637,113.20942927490582L123.70909090909092,112.0107729326595L123.95454545454545,113.77992337400264L124.2,111.77365259690718L124.44545454545455,112.43579458106649L124.69090909090909,113.12518401579425L124.93636363636364,113.0646994980899L125.18181818181817,112.42730687965047L125.42727272727272,112.54780330441216L125.67272727272727,111.26869705590336L125.91818181818182,113.60786898569629L126.16363636363637,111.63343191146852L126.40909090909092,114.57626266912982L126.65454545454546,114.00386365977201L126.89999999999999,112.986453500661L127.14545454545454,113.93368580124596L127.39090909090909,120.54887007583272L127.63636363636364,119.92179290814835L127.88181818181818,120.20808404142207L128.12727272727273,118.34452238949862L128.37272727272727,118.64389712160283L128.61818181818182,119.28496452895078L128.86363636363637,116.31389769640836L129.10909090909092,117.75600157000804L129.35454545454544,118.02409719337118L129.6,117.05514891581103L129.84545454545454,116.98647569526327L130.0909090909091,116.76448372277346L130.33636363636364,112.91367146101867L130.5818181818182,117.62791443954816L130.82727272727274,117.33836807987907L131.07272727272726,118.25112391601911L131.3181818181818,116.73018087040296L131.56363636363636,113.31468641757967L131.8090909090909,117.11348257281566L132.05454545454546,114.36401226303795L132.3,117.5374191457575L132.54545454545453,115.02911047501999L132.79090909090908,39.860936836762875L133.03636363636363,47.70944682034579L133.28181818181818,55.91205791993576L133.52727272727273,53.1216971440749L133.77272727272728,57.60814179073681L134.0181818181818,50.541956749829396L134.26363636363635,58.80003690719606L134.5090909090909,56.801115707917646L134.75454545454545,56.38933680274272L135,54.14591193199159L135.24545454545452,54.18531222776936L135.4909090909091,58.28271150588991L135.73636363636362,58.91617373986679L135.9818181818182,59.93271101604809L136.22727272727272,58.756469921632245L136.47272727272727,58.19202813235198L136.71818181818182,59.11730332808061L136.96363636363637,62.52347577701916L137.20909090909092,58.42176513238388L137.45454545454544,59.2918220433322L137.7,57.955510616302504L137.94545454545454,63.19009791720998L138.1909090909091,62.81590602614665L138.43636363636364,63.369487415660515L138.6818181818182,62.74767648090017L138.92727272727274,61.764472723007216L139.1727272727273,59.1115741296248L139.4181818181818,61.93144895813684L139.66363636363636,57.751680395819946L139.9090909090909,60.95544045621699L140.15454545454546,65.19677378914575L140.4,61.1343573440205L140.64545454545453,62.15580398386176L140.8909090909091,60.73857003992255L141.13636363636363,62.14801073074342L141.3818181818182,60.78368024392563L141.62727272727273,65.03468762744558L141.87272727272727,64.20503410426055L142.11818181818182,61.045786250721335L142.36363636363635,61.17934216152538L142.60909090909092,65.63599304719406L142.85454545454544,61.643802686171114L143.1,66.36641762473369L143.34545454545454,64.02041695334697L143.5909090909091,67.47882734645498L143.83636363636364,69.87660299647939L144.0818181818182,69.4366892901334L144.3272727272727,66.62478132681413L144.57272727272726,67.87978443232451L144.8181818181818,70.00500841574235L145.06363636363636,66.15700288252397L145.3090909090909,62.74176402525468L145.55454545454546,65.5612530491569L145.8,64.49758009477097L146.04545454545453,64.3650176308372L146.2909090909091,65.18369501287287L146.53636363636363,64.12863514640117L146.78181818181818,64.27138285203415L147.02727272727273,67.25418296727268L147.27272727272725,65.39500984278594L147.51818181818183,59.5182507688349L147.76363636363635,64.22518275000834L148.00909090909093,63.58664718541233L148.25454545454545,63.995474685322165L148.5,62.72421956062318L148.74545454545455,65.14071637933905L148.99090909090907,66.3610356504267L149.23636363636365,65.63553008166228L149.48181818181817,63.47702080553229L149.72727272727272,64.503907290372L149.97272727272727,65.92032139951533L150.21818181818182,65.15649578788066L150.46363636363637,65.63146948814394L150.70909090909092,66.89384146170183L150.95454545454544,65.53057193756105L151.20000000000002,65.33355116844179L151.44545454545454,62.351840951225995L151.6909090909091,70.29305013743316L151.93636363636364,67.99585374918853L152.18181818181816,68.96438728679311L152.42727272727274,64.7103802724318L152.67272727272726,70.47690532424235L152.91818181818184,70.11844461614436L153.16363636363636,68.74152725393122L153.40909090909093,67.9377708651803L153.65454545454546,67.27594234726648L153.89999999999998,69.69994306564332L154.14545454545456,67.47947356917643L154.39090909090908,72.76462056420068L154.63636363636365,64.02906862172215L154.88181818181818,69.71467115662317L155.12727272727273,67.15230161493476L155.37272727272727,63.91847773031755L155.61818181818182,67.47266411781312L155.86363636363637,65.41885256767274L156.1090909090909,67.14241537180816L156.35454545454544,66.3917071169073L156.6,68.97264350544323L156.84545454545454,69.51746713031423L157.0909090909091,71.80622404271907L157.33636363636364,70.29563502831894L157.58181818181816,70.78244328498842L157.82727272727274,69.8130995577032L158.07272727272726,71.5213844992898L158.3181818181818,66.94016695022584L158.56363636363636,73.55353312058884L158.80909090909088,70.93846266919917L159.05454545454546,67.92261838912965L159.29999999999998,73.84754516861658L159.54545454545456,69.26593216982756L159.79090909090908,69.8244036327709L160.03636363636366,69.88481098955329L160.28181818181818,68.86103987693788L160.52727272727273,69.38685297966005L160.77272727272728,69.40275777469982L161.0181818181818,70.78671607104216L161.26363636363638,67.72573265162383L161.5090909090909,71.88775420188905L161.75454545454545,70.94967029311442L162,67.6926595514471L162.24545454545455,70.33754305406052L162.4909090909091,72.39473039453681L162.73636363636365,68.70939937504856L162.98181818181817,73.00537228584291L163.22727272727272,69.33301394635981L163.47272727272727,72.15978503227235L163.71818181818182,69.69808155840094L163.96363636363637,71.37914798476481L164.2090909090909,73.10939485376532L164.45454545454547,71.84438011863017L164.7,73.17290793765676L164.94545454545457,70.71389545093884L165.1909090909091,70.1521542939273L165.4363636363636,76.06940356167881L165.6818181818182,71.93738796494226L165.9272727272727,71.35984810915862L166.1727272727273,72.30364192615856L166.4181818181818,71.07495069503786L166.66363636363639,71.05574727058412L166.9090909090909,72.26141561161388L167.15454545454546,68.43960621140222L167.4,68.43118602579291L167.64545454545453,69.87099918452178L167.8909090909091,75.97695513205095L168.13636363636363,70.73041753335434L168.38181818181818,71.21357029134577L168.62727272727273,71.53482978994197L168.87272727272727,74.76388898762791L169.11818181818182,71.32074681195347L169.36363636363637,71.34292093190281L169.6090909090909,73.2725419781425L169.85454545454547,71.58875562927942L170.1,70.24940599094738L170.34545454545454,71.72079725698991L170.5909090909091,72.54265752705662L170.83636363636361,72.23300110210073L171.0818181818182,74.39762538129634L171.3272727272727,70.02608299255373L171.5727272727273,75.46390251679856L171.8181818181818,74.93982553482057L172.0636363636364,74.79769511656328L172.3090909090909,74.31489922783594L172.55454545454543,68.88557705012236L172.8,71.56687086278743L173.04545454545453,73.49391666325657L173.2909090909091,70.70370056412439L173.53636363636363,70.47293153676121L173.78181818181818,73.80401676351374L174.02727272727273,72.20188596031885L174.27272727272728,74.8805080760609L174.51818181818183,72.15801033106719L174.76363636363635,69.51841235160829L175.0090909090909,75.74068838899787L175.25454545454545,75.50805785439233L175.5,72.57694591175427L175.74545454545455,69.82009226625617L175.9909090909091,71.08074740930039L176.23636363636362,75.13086633248764L176.4818181818182,70.93744028698315L176.72727272727272,74.68926473097368L176.97272727272727,72.42405154488306L177.21818181818182,76.21675198728389L177.46363636363634,74.85655925490641L177.70909090909092,72.34417070042004L177.95454545454544,77.0719361305237L178.20000000000002,71.21369567784397L178.44545454545454,74.13661891763861L178.69090909090912,73.95879192785783L178.93636363636364,73.29315358942206L179.1818181818182,77.46133836832915L179.42727272727274,73.95954424684699L179.67272727272726,70.49758445132863L179.91818181818184,75.4593114419417L180.16363636363636,74.26452279090883L180.4090909090909,70.86103168400852L180.65454545454546,76.00430867888713L180.9,72.96486280181193L181.14545454545456,72.31322917071257L181.3909090909091,74.14117141203447L181.63636363636363,71.6159452091564L181.88181818181818,72.90889219804245L182.12727272727273,75.8705695108934L182.37272727272727,75.12606306509538L182.61818181818182,72.2080106084997L182.86363636363635,75.53230567411943L183.10909090909092,72.31340278278698L183.35454545454544,72.38375425338747L183.60000000000002,74.96385151689704L183.84545454545454,75.58775544166566L184.09090909090907,77.66303701834245L184.33636363636364,80.75813521038403L184.58181818181816,77.20555955713446L184.82727272727274,76.69887271794407L185.07272727272726,75.31378594311802L185.31818181818184,75.20713025873359L185.56363636363636,77.36272671005945L185.8090909090909,74.80686762116174L186.05454545454546,76.1708315936002L186.29999999999998,73.55597333474594L186.54545454545456,76.57802906903355L186.79090909090908,72.51302773302253L187.03636363636363,73.10903798450124L187.28181818181818,73.49785187027673L187.52727272727273,71.62880214777861L187.77272727272728,75.35394820300017L188.01818181818183,72.56920088421215L188.26363636363635,73.4236519986933L188.50909090909093,76.18678461421621L188.75454545454545,71.56934965740551L189,76.88024911013518L189.24545454545455,72.3885768110102L189.49090909090907,73.96130930293691L189.73636363636365,75.28616233305497L189.98181818181817,73.78245028582488L190.22727272727275,75.21182742985813L190.47272727272727,76.00884188305248L190.71818181818182,72.54605260762303L190.96363636363637,73.52416374466638L191.2090909090909,75.32102942466737L191.45454545454547,73.93600052053279L191.7,73.26652342622931L191.94545454545454,75.39686896584253L192.1909090909091,73.13153039325368L192.43636363636364,72.86167935891586L192.6818181818182,76.171255978671L192.92727272727274,74.24358324571091L193.1727272727273,75.67446502772246L193.4181818181818,78.25183272361757L193.66363636363636,77.42956735871057L193.9090909090909,77.92319471185859L194.15454545454546,77.96789982102136L194.4,73.16965753381903L194.64545454545456,74.69791639934887L194.89090909090908,76.93608468229121L195.13636363636365,73.5104291005568L195.38181818181818,73.37836818261582L195.62727272727273,78.41592506928879L195.87272727272727,75.22122177210723L196.1181818181818,80.11597308245574L196.36363636363637,76.08325394717131L196.6090909090909,78.11933777549051L196.85454545454547,75.98372600295329L197.1,77.97075477513401L197.34545454545454,68.22865789586848L197.5909090909091,75.31374736265703L197.83636363636364,77.64999682253058L198.0818181818182,77.10936882279138L198.3272727272727,79.58093924955888L198.57272727272726,75.76381737535651L198.8181818181818,71.96390238675205L199.06363636363636,77.41207111965527L199.3090909090909,77.5058698654175L199.55454545454546,78.93525665456599L199.8,75.61831116676332L200.04545454545456,78.46599286252803L200.29090909090908,75.54989836432719L200.53636363636363,76.19222445921464L200.78181818181818,77.02640154144983L201.02727272727273,78.57476082715122L201.27272727272728,76.99408076026225L201.5181818181818,76.37486436150293L201.76363636363638,75.59856761585583L202.0090909090909,78.30383918502115L202.25454545454548,79.31662451137197L202.5,80.77758940783416L202.74545454545452,79.04460332610391L202.9909090909091,79.22390601851724L203.23636363636362,75.9734828905626L203.4818181818182,74.94632634249602L203.72727272727272,76.7682403867895L203.97272727272727,77.30111371387136L204.21818181818182,79.49075742201371L204.46363636363637,75.50751772793858L204.70909090909092,75.86559263142674L204.95454545454544,75.8409590070898L205.2,77.46723153374414L205.44545454545454,79.69430793415417L205.6909090909091,81.06194187294354L205.93636363636364,78.34616195071828L206.1818181818182,79.89645990458403L206.42727272727274,80.2463075247678L206.6727272727273,76.83263117616828L206.9181818181818,79.3773598020727L207.16363636363636,75.4380343177102L207.4090909090909,75.27043115008962L207.65454545454546,80.08241772651674L207.9,82.14085410941732L208.14545454545453,78.42092123898594L208.3909090909091,77.24340698935771L208.63636363636363,79.71898013895209L208.8818181818182,79.99273744496433L209.12727272727273,79.30642962455751L209.37272727272727,80.78987728465688L209.61818181818182,76.3846830888228L209.86363636363635,77.93780706145547L210.10909090909092,75.35001299598002L210.35454545454544,76.93078951402146L210.6,74.0504976836118L210.84545454545454,76.79741686040705L211.0909090909091,78.28928470611574L211.33636363636364,75.83762179721487L211.5818181818182,80.27749982747166L211.8272727272727,81.24640952457082L212.07272727272726,76.75494941798125L212.3181818181818,80.5128888650374L212.56363636363636,78.32575288685887L212.8090909090909,79.693594195626L213.05454545454546,80.07724794474517L213.3,80.37437536499719L213.54545454545453,75.89254108342259L213.7909090909091,78.94027211449365L214.03636363636363,77.2020873156461L214.28181818181818,75.87467832998796L214.52727272727273,80.0928055156361L214.77272727272725,80.72685610164297L215.01818181818183,80.98585155877201L215.26363636363635,77.40492408925837L215.50909090909093,80.64473759044301L215.75454545454545,80.88264400308783L216,80.89092915708369L216.24545454545455,81.8989835544066L216.49090909090907,79.44799098101531L216.73636363636365,81.73380131071265L216.98181818181817,80.75274359096181L217.22727272727272,82.04654899510471L217.47272727272727,81.84393405914308L217.71818181818182,78.7707688591697L217.96363636363637,76.6915810108185L218.20909090909092,76.51045539162378L218.45454545454544,77.5138463757255L218.70000000000002,81.17305360057138L218.94545454545454,76.90560611811553L219.1909090909091,80.50388997251338L219.43636363636364,82.77255128730428L219.68181818181816,80.63062678683889L219.92727272727274,78.22874231771989L220.17272727272726,80.84772868589921L220.41818181818184,83.12873574820433L220.66363636363636,78.25188094919379L220.90909090909093,80.53909464315934L221.15454545454546,80.94309958544646L221.39999999999998,82.01365915211765L221.64545454545456,83.12919389117849L221.89090909090908,78.95397782325746L222.13636363636365,80.62406810847197L222.38181818181818,79.80782129547815L222.62727272727273,78.82684555920689L222.87272727272727,80.34856503660029L223.11818181818182,80.11568372899836L223.36363636363637,82.08201408386232L223.6090909090909,78.69765888560903L223.85454545454544,80.74517217549412L224.1,79.85881501978095L224.34545454545454,80.26496117765254L224.5909090909091,78.62908211621372L224.83636363636364,79.62625200098212L225.08181818181816,81.02813092145054L225.32727272727274,83.06508281014185L225.57272727272726,80.47271696004002L225.8181818181818,80.23092356595127L226.06363636363636,82.45380916378717L226.30909090909088,83.404238820076L226.55454545454546,77.00276136398317L226.79999999999998,81.34140426462348L227.04545454545456,82.75869125669654L227.29090909090908,79.45580352436413L227.53636363636366,82.88932952013884L227.78181818181818,81.09176456928255L228.02727272727273,80.32560001720083L228.27272727272728,83.95431421019815L228.5181818181818,77.10992823947561L228.76363636363638,81.45183601162653L229.0090909090909,84.45557084950535L229.25454545454545,83.95921392874284L229.5,82.33295586976139L229.74545454545455,78.62343972379512L229.9909090909091,81.57106892629105L230.23636363636365,83.74704068357295L230.48181818181817,87.64908779751171L230.72727272727272,81.85171766714616L230.97272727272727,82.92903363704683L231.21818181818182,82.38002403215928L231.46363636363637,80.78348257324915L231.7090909090909,81.47848546504976L231.95454545454547,79.95897954160517L232.2,79.8898144201799L232.44545454545457,80.45759341933511L232.6909090909091,83.18308115005495L232.9363636363636,79.44528070363133L233.1818181818182,86.50421744043177L233.4272727272727,81.76947376944803L233.6727272727273,85.59911500323904L233.9181818181818,82.77804418043657L234.16363636363639,79.69292868267407L234.4090909090909,79.37665570865978L234.65454545454546,84.48957470330326L234.9,80.74794996868481L235.14545454545453,82.16581566767259L235.3909090909091,84.31027683344756L235.63636363636363,83.41336792165583L235.88181818181818,86.2599548968402L236.12727272727273,82.92143328623338L236.37272727272727,82.1058085831729L236.61818181818182,83.30947556278925L236.86363636363637,79.13928942246872L237.1090909090909,82.26139875975524L237.35454545454547,85.06184832616287L237.6,82.84362614154817L237.84545454545454,84.70359016548504L238.0909090909091,83.15073143352163L238.33636363636361,83.88920968229121L238.5818181818182,83.51861541921443L238.8272727272727,82.41420632058924L239.0727272727273,82.13128133253618L239.3181818181818,83.03574719212274L239.5636363636364,82.83290559595282L239.8090909090909,84.55534474416214L240.05454545454543,82.1570530804721L240.3,82.44761217724194L240.54545454545453,80.13452063907278" style="fill: none;" fill="none"></path></g></g></g></g></g></g><g transform="translate(60, 178)" clip-path="url(#clip_1)"><clipPath id="clip_1"><rect width="270" height="22"></rect></clipPath><g><g><line x1="0" y1="0" x2="0" y2="5" style="visibility: inherit;" fill="rgb(0, 0, 0)" stroke="rgb(204, 204, 204)" stroke-width="1px"></line><line x1="24.545454545454547" y1="0" x2="24.545454545454547" y2="5" style="visibility: inherit;" fill="rgb(0, 0, 0)" stroke="rgb(204, 204, 204)" stroke-width="1px"></line><line x1="49.09090909090909" y1="0" x2="49.09090909090909" y2="5" style="visibility: inherit;" fill="rgb(0, 0, 0)" stroke="rgb(204, 204, 204)" stroke-width="1px"></line><line x1="73.63636363636363" y1="0" x2="73.63636363636363" y2="5" style="visibility: inherit;" fill="rgb(0, 0, 0)" stroke="rgb(204, 204, 204)" stroke-width="1px"></line><line x1="98.18181818181819" y1="0" x2="98.18181818181819" y2="5" style="visibility: inherit;" fill="rgb(0, 0, 0)" stroke="rgb(204, 204, 204)" stroke-width="1px"></line><line x1="122.72727272727272" y1="0" x2="122.72727272727272" y2="5" style="visibility: inherit;" fill="rgb(0, 0, 0)" stroke="rgb(204, 204, 204)" stroke-width="1px"></line><line x1="147.27272727272725" y1="0" x2="147.27272727272725" y2="5" style="visibility: inherit;" fill="rgb(0, 0, 0)" stroke="rgb(204, 204, 204)" stroke-width="1px"></line><line x1="171.8181818181818" y1="0" x2="171.8181818181818" y2="5" style="visibility: inherit;" fill="rgb(0, 0, 0)" stroke="rgb(204, 204, 204)" stroke-width="1px"></line><line x1="196.36363636363637" y1="0" x2="196.36363636363637" y2="5" style="visibility: inherit;" fill="rgb(0, 0, 0)" stroke="rgb(204, 204, 204)" stroke-width="1px"></line><line x1="220.90909090909093" y1="0" x2="220.90909090909093" y2="5" style="visibility: inherit;" fill="rgb(0, 0, 0)" stroke="rgb(204, 204, 204)" stroke-width="1px"></line><line x1="245.45454545454544" y1="0" x2="245.45454545454544" y2="5" style="visibility: inherit;" fill="rgb(0, 0, 0)" stroke="rgb(204, 204, 204)" stroke-width="1px"></line><line x1="270" y1="0" x2="270" y2="5" style="visibility: inherit;" fill="rgb(0, 0, 0)" stroke="rgb(204, 204, 204)" stroke-width="1px"></line></g><g transform="translate(0, 8)"><text x="0" y="0" dx="0em" dy="0.95em" style="text-anchor: middle; visibility: hidden; font-family: &quot;Helvetica Neue&quot;, sans-serif; font-size: 12px; font-weight: 200;" fill="rgb(50, 49, 63)" stroke="none" stroke-width="1px">-100</text><text x="24.545454545454547" y="0" dx="0em" dy="0.95em" style="text-anchor: middle; visibility: inherit; font-family: &quot;Helvetica Neue&quot;, sans-serif; font-size: 12px; font-weight: 200;" fill="rgb(50, 49, 63)" stroke="none" stroke-width="1px">0</text><text x="49.09090909090909" y="0" dx="0em" dy="0.95em" style="text-anchor: middle; visibility: hidden; font-family: &quot;Helvetica Neue&quot;, sans-serif; font-size: 12px; font-weight: 200;" fill="rgb(50, 49, 63)" stroke="none" stroke-width="1px">100</text><text x="73.63636363636363" y="0" dx="0em" dy="0.95em" style="text-anchor: middle; visibility: inherit; font-family: &quot;Helvetica Neue&quot;, sans-serif; font-size: 12px; font-weight: 200;" fill="rgb(50, 49, 63)" stroke="none" stroke-width="1px">200</text><text x="98.18181818181819" y="0" dx="0em" dy="0.95em" style="text-anchor: middle; visibility: hidden; font-family: &quot;Helvetica Neue&quot;, sans-serif; font-size: 12px; font-weight: 200;" fill="rgb(50, 49, 63)" stroke="none" stroke-width="1px">300</text><text x="122.72727272727272" y="0" dx="0em" dy="0.95em" style="text-anchor: middle; visibility: inherit; font-family: &quot;Helvetica Neue&quot;, sans-serif; font-size: 12px; font-weight: 200;" fill="rgb(50, 49, 63)" stroke="none" stroke-width="1px">400</text><text x="147.27272727272725" y="0" dx="0em" dy="0.95em" style="text-anchor: middle; visibility: hidden; font-family: &quot;Helvetica Neue&quot;, sans-serif; font-size: 12px; font-weight: 200;" fill="rgb(50, 49, 63)" stroke="none" stroke-width="1px">500</text><text x="171.8181818181818" y="0" dx="0em" dy="0.95em" style="text-anchor: middle; visibility: inherit; font-family: &quot;Helvetica Neue&quot;, sans-serif; font-size: 12px; font-weight: 200;" fill="rgb(50, 49, 63)" stroke="none" stroke-width="1px">600</text><text x="196.36363636363637" y="0" dx="0em" dy="0.95em" style="text-anchor: middle; visibility: hidden; font-family: &quot;Helvetica Neue&quot;, sans-serif; font-size: 12px; font-weight: 200;" fill="rgb(50, 49, 63)" stroke="none" stroke-width="1px">700</text><text x="220.90909090909093" y="0" dx="0em" dy="0.95em" style="text-anchor: middle; visibility: inherit; font-family: &quot;Helvetica Neue&quot;, sans-serif; font-size: 12px; font-weight: 200;" fill="rgb(50, 49, 63)" stroke="none" stroke-width="1px">800</text><text x="245.45454545454544" y="0" dx="0em" dy="0.95em" style="text-anchor: middle; visibility: hidden; font-family: &quot;Helvetica Neue&quot;, sans-serif; font-size: 12px; font-weight: 200;" fill="rgb(50, 49, 63)" stroke="none" stroke-width="1px">900</text><text x="270" y="0" dx="0em" dy="0.95em" style="text-anchor: middle; visibility: hidden; font-family: &quot;Helvetica Neue&quot;, sans-serif; font-size: 12px; font-weight: 200;" fill="rgb(50, 49, 63)" stroke="none" stroke-width="1px">1k</text></g><line x1="0" y1="0" x2="270" y2="0" fill="rgb(0, 0, 0)" stroke="rgb(204, 204, 204)" stroke-width="1px"></line></g></g></g></g></svg>