<svg viewBox="0 0 330 200" xmlns="http://www.w3.org/2000/svg"><g><g><g><g><g><line x1="60" y1="178" x2="55" y2="178" style="visibility: inherit;" fill="rgb(0, 0, 0)" stroke="rgb(204, 204, 204)" stroke-width="1px"></line><line x1="60" y1="163.16666666666666" x2="55" y2="163.16666666666666" style="visibility: inherit;" fill="rgb(0, 0, 0)" stroke="rgb(204, 204, 204)" stroke-width="1px"></line><line x1="60" y1="148.33333333333334" x2="55" y2="148.33333333333334" style="visibility: inherit;" fill="rgb(0, 0, 0)" stroke="rgb(204, 204, 204)" stroke-width="1px"></line><line x1="60" y1="133.5" x2="55" y2="133.5" style="visibility: inherit;" fill="rgb(0, 0, 0)" stroke="rgb(204, 204, 204)" stroke-width="1px"></line><line x1="60" y1="118.66666666666667" x2="55" y2="118.66666666666667" style="visibility: inherit;" fill="rgb(0, 0, 0)" stroke="rgb(204, 204, 204)" stroke-width="1px"></line><line x1="60" y1="103.83333333333334" x2="55" y2="103.83333333333334" style="visibility: inherit;" fill="rgb(0, 0, 0)" stroke="rgb(204, 204, 204)" stroke-width="1px"></line><line x1="60" y1="89.00000000000001" x2="55" y2="89.00000000000001" style="visibility: inherit;" fill="rgb(0, 0, 0)" stroke="rgb(204, 204, 204)" stroke-width="1px"></line><line x1="60" y1="74.16666666666669" x2="55" y2="74.16666666666669" style="visibility: inherit;" fill="rgb(0, 0, 0)" stroke="rgb(204, 204, 204)" stroke-width="1px"></line><line x1="60" y1="59.33333333333336" x2="55" y2="59.33333333333336" style="visibility: inherit;" fill="rgb(0, 0, 0)" stroke="rgb(204, 204, 204)" stroke-width="1px"></line><line x1="60" y1="44.50000000000003" x2="55" y2="44.50000000000003" style="visibility: inherit;" fill="rgb(0, 0, 0)" stroke="rgb(204, 204, 204)" stroke-width="1px"></line><line x1="60" y1="29.666666666666686" x2="55" y2="29.666666666666686" style="visibility: inherit;" fill="rgb(0, 0, 0)" stroke="rgb(204, 204, 204)" stroke-width="1px"></line><line x1="60" y1="14.833333333333343" x2="55" y2="14.833333333333343" style="visibility: inherit;" fill="rgb(0, 0, 0)" stroke="rgb(204, 204, 204)" stroke-width="1px"></line><line x1="60" y1="0" x2="55" y2="0" style="visibility: inherit;" fill="rgb(0, 0, 0)" stroke="rgb(204, 204, 204)" stroke-width="1px"></line></g><g transform="translate(50, 0)"><text x="0" y="178" dx="0em" dy="0.3em" style="text-anchor: end; visibility: hidden; font-family: &quot;Helvetica Neue&quot;, sans-serif; font-size: 12px; font-weight: 200;" fill="rgb(50, 49, 63)" stroke="none" stroke-width="1px">-0.05</text><text x="0" y="163.16666666666666" dx="0em" dy="0.3em" style="text-anchor: end; visibility: inherit; font-family: &quot;Helvetica Neue&quot;, sans-serif; font-size: 12px; font-weight: 200;" fill="rgb(50, 49, 63)" stroke="none" stroke-width="1px">0</text><text x="0" y="148.33333333333334" dx="0em" dy="0.3em" style="text-anchor: end; visibility: hidden; font-family: &quot;Helvetica Neue&quot;, sans-serif; font-size: 12px; font-weight: 200;" fill="rgb(50, 49, 63)" stroke="none" stroke-width="1px">0.05</text><text x="0" y="133.5" dx="0em" dy="0.3em" style="text-anchor: end; visibility: inherit; font-family: &quot;Helvetica Neue&quot;, sans-serif; font-size: 12px; font-weight: 200;" fill="rgb(50, 49, 63)" stroke="none" stroke-width="1px">0.1</text><text x="0" y="118.66666666666667" dx="0em" dy="0.3em" style="text-anchor: end; visibility: hidden; font-family: &quot;Helvetica Neue&quot;, sans-serif; font-size: 12px; font-weight: 200;" fill="rgb(50, 49, 63)" stroke="none" stroke-width="1px">0.15</text><text x="0" y="103.83333333333334" dx="0em" dy="0.3em" style="text-anchor: end; visibility: inherit; font-family: &quot;Helvetica Neue&quot;, sans-serif; font-size: 12px; font-weight: 200;" fill="rgb(50, 49, 63)" stroke="none" stroke-width="1px">0.2</text><text x="0" y="89.00000000000001" dx="0em" dy="0.3em" style="text-anchor: end; visibility: hidden; font-family: &quot;Helvetica Neue&quot;, sans-serif; font-size: 12px; font-weight: 200;" fill="rgb(50, 49, 63)" stroke="none" stroke-width="1px">0.25</text><text x="0" y="74.16666666666669" dx="0em" dy="0.3em" style="text-anchor: end; visibility: inherit; font-family: &quot;Helvetica Neue&quot;, sans-serif; font-size: 12px; font-weight: 200;" fill="rgb(50, 49, 63)" stroke="none" stroke-width="1px">0.3</text><text x="0" y="59.33333333333336" dx="0em" dy="0.3em" style="text-anchor: end; visibility: hidden; font-family: &quot;Helvetica Neue&quot;, sans-serif; font-size: 12px; font-weight: 200;" fill="rgb(50, 49, 63)" stroke="none" stroke-width="1px">0.35</text><text x="0" y="44.50000000000003" dx="0em" dy="0.3em" style="text-anchor: end; visibility: inherit; font-family: &quot;Helvetica Neue&quot;, sans-serif; font-size: 12px; font-weight: 200;" fill="rgb(50, 49, 63)" stroke="none" stroke-width="1px">0.4</text><text x="0" y="29.666666666666686" dx="0em" dy="0.3em" style="text-anchor: end; visibility: hidden; font-family: &quot;Helvetica Neue&quot;, sans-serif; font-size: 12px; font-weight: 200;" fill="rgb(50, 49, 63)" stroke="none" stroke-width="1px">0.45</text><text x="0" y="14.833333333333343" dx="0em" dy="0.3em" style="text-anchor: end; visibility: inherit; font-family: &quot;Helvetica Neue&quot;, sans-serif; font-size: 12px; font-weight: 200;" fill="rgb(50, 49, 63)" stroke="none" stroke-width="1px">0.5</text><text x="0" y="0" dx="0em" dy="0.3em" style="text-anchor: end; visibility: hidden; font-family: &quot;Helvetica Neue&quot;, sans-serif; font-size: 12px; font-weight: 200;" fill="rgb(50, 49, 63)" stroke="none" stroke-width="1px">0.55</text></g><line x1="60" y1="0" x2="60" y2="178" fill="rgb(0, 0, 0)" stroke="rgb(204, 204, 204)" stroke-width="1px"></line></g></g><g transform="translate(60, 0)" clip-path="url(#clip_0)"><clipPath id="clip_0"><rect width="270" height="178"></rect></clipPath><g><g><g><line x1="0" y1="0" x2="0" y2="178" fill="rgb(0, 0, 0)" stroke="rgb(60, 60, 60)" stroke-width="1px" opacity="0.25"></line><line x1="27" y1="0" x2="27" y2="178" fill="rgb(0, 0, 0)" stroke="rgb(60, 60, 60)" stroke-width="1px" opacity="0.25"></line><line x1="54" y1="0" x2="54" y2="178" fill="rgb(0, 0, 0)" stroke="rgb(60, 60, 60)" stroke-width="1px" opacity="0.25"></line><line x1="81" y1="0" x2="81" y2="178" fill="rgb(0, 0, 0)" stroke="rgb(60, 60, 60)" stroke-width="1px" opacity="0.25"></line><line x1="108" y1="0" x2="108" y2="178" fill="rgb(0, 0, 0)" stroke="rgb(60, 60, 60)" stroke-width="1px" opacity="0.25"></line><line x1="135" y1="0" x2="135" y2="178" fill="rgb(0, 0, 0)" stroke="rgb(60, 60, 60)" stroke-width="1px" opacity="0.25"></line><line x1="162" y1="0" x2="162" y2="178" fill="rgb(0, 0, 0)" stroke="rgb(60, 60, 60)" stroke-width="1px" opacity="0.25"></line><line x1="189" y1="0" x2="189" y2="178" fill="rgb(0, 0, 0)" stroke="rgb(60, 60, 60)" stroke-width="1px" opacity="0.25"></line><line x1="216" y1="0" x2="216" y2="178" fill="rgb(0, 0, 0)" stroke="rgb(60, 60, 60)" stroke-width="1px" opacity="0.25"></line><line x1="243" y1="0" x2="243" y2="178" fill="rgb(0, 0, 0)" stroke="rgb(60, 60, 60)" stroke-width="1px" opacity="0.25"></line><line x1="270" y1="0" x2="270" y2="178" fill="rgb(0, 0, 0)" stroke="rgb(60, 60, 60)" stroke-width="1px" opacity="0.25"></line></g><g><line x1="0" y1="178" x2="270" y2="178" fill="rgb(0, 0, 0)" stroke="rgb(60, 60, 60)" stroke-width="1px" opacity="0.25"></line><line x1="0" y1="163.16666666666666" x2="270" y2="163.16666666666666" fill="rgb(0, 0, 0)" stroke="rgb(60, 60, 60)" stroke-width="1px" opacity="0.25"></line><line x1="0" y1="148.33333333333334" x2="270" y2="148.33333333333334" fill="rgb(0, 0, 0)" stroke="rgb(60, 60, 60)" stroke-width="1px" opacity="0.25"></line><line x1="0" y1="133.5" x2="270" y2="133.5" fill="rgb(0, 0, 0)" stroke="rgb(60, 60, 60)" stroke-width="1px" opacity="0.25"></line><line x1="0" y1="118.66666666666667" x2="270" y2="118.66666666666667" fill="rgb(0, 0, 0)" stroke="rgb(60, 60, 60)" stroke-width="1px" opacity="0.25"></line><line x1="0" y1="103.83333333333334" x2="270" y2="103.83333333333334" fill="rgb(0, 0, 0)" stroke="rgb(60, 60, 60)" stroke-width="1px" opacity="0.25"></line><line x1="0" y1="89.00000000000001" x2="270" y2="89.00000000000001" fill="rgb(0, 0, 0)" stroke="rgb(60, 60, 60)" stroke-width="1px" opacity="0.25"></line><line x1="0" y1="74.16666666666669" x2="270" y2="74.16666666666669" fill="rgb(0, 0, 0)" stroke="rgb(60, 60, 60)" stroke-width="1px" opacity="0.25"></line><line x1="0" y1="59.33333333333336" x2="270" y2="59.33333333333336" fill="rgb(0, 0, 0)" stroke="rgb(60, 60, 60)" stroke-width="1px" opacity="0.25"></line><line x1="0" y1="44.50000000000003" x2="270" y2="44.50000000000003" fill="rgb(0, 0, 0)" stroke="rgb(60, 60, 60)" stroke-width="1px" opacity="0.25"></line><line x1="0" y1="29.666666666666686" x2="270" y2="29.666666666666686" fill="rgb(0, 0, 0)" stroke="rgb(60, 60, 60)" stroke-width="1px" opacity="0.25"></line><line x1="0" y1="14.833333333333343" x2="270" y2="14.833333333333343" fill="rgb(0, 0, 0)" stroke="rgb(60, 60, 60)" stroke-width="1px" opacity="0.25"></line><line x1="0" y1="0" x2="270" y2="0" fill="rgb(0, 0, 0)" stroke="rgb(60, 60, 60)" stroke-width="1px" opacity="0.25"></line></g></g></g><g><g><line x1="0" y1="163.16666666666666" x2="270" y2="163.16666666666666" fill="rgb(0, 0, 0)" stroke="rgb(153, 153, 153)" stroke-width="1.5px"></line></g></g><g><g><line x1="27" y1="0" x2="27" y2="178" fill="rgb(0, 0, 0)" stroke="rgb(153, 153, 153)" stroke-width="1.5px"></line></g></g><g><g><g><g><g><path stroke="rgb(255, 112, 67)" stroke-width="2px" d="M30.240000000000002,-0.8625194249700598L30.78,3.3505848598300076L31.32,6.911570382698471L31.86,9.62199684670702L32.4,12.428715577191184L32.94,13.987288120315839L33.48,15.87083427221728L34.02,18.5432606340988L34.56,19.55176364213284L35.1,21.22486365997841L35.64,22.109736311281864L36.18,23.589992178075505L36.720000000000006,24.596721848363416L37.260000000000005,24.726038940457016L37.800000000000004,27.5330196039437L38.339999999999996,27.793146963461595L38.879999999999995,30.203908461452016L39.419999999999995,30.34501277994434L39.96,30.19234045407876L40.5,31.406073773414334L41.04,33.20231392913564L41.58,33.56805496582416L42.12,33.787499444093555L42.660000000000004,34.39383381285032L43.2,36.893635423829664L43.74,36.376180364345174L44.28,34.404374112100044L44.82,36.54395684337075L45.36,38.42103922058658L45.900000000000006,37.76729030544496L46.44,37.96837373183399L46.98,39.038359047608395L47.519999999999996,40.39234814248351L48.059999999999995,41.32341027305927L48.6,42.950044411015256L49.14,43.688694615078845L49.68,45.1998851336906L50.22,45.75059695479098L50.76,46.43702653715289L51.3,46.848884286524395L51.84,46.02799853999815L52.38,47.07813158029333L52.92,49.606878382363305L53.46,51.12412646358348L54,49.542475566926726L54.540000000000006,50.729485821129245L55.08,50.37369157755394L55.62,50.63488266001583L56.16,50.07959586658309L56.699999999999996,50.577090372313634L57.239999999999995,51.231586028935396L57.78,50.79361684111862L58.32,53.260168888100836L58.86,54.028102209923034L59.4,52.82752903943695L59.94,52.581849229209254L60.480000000000004,53.14644278598189L61.02,52.891866152558904L61.56,53.56978675429475L62.1,53.85787043991358L62.64,55.21738972280029L63.18000000000001,55.558433663926166L63.72,56.59372661039133L64.25999999999999,56.621569610783865L64.8,57.350276853928605L65.34,57.075499756906225L65.88,57.97863389478552L66.42,57.5711791203008L66.96,56.25870585951722L67.5,56.77655611344288L68.04,58.51126561507451L68.58,58.36542578108033L69.12,58.633920833867336L69.66,58.08301995917253L70.2,58.58314601614532L70.74000000000001,59.35788927893513L71.28,61.24673458588528L71.82000000000001,60.48137479217296L72.36,59.7848251016425L72.9,61.146893589783915L73.44000000000001,61.6081357294853L73.98,60.34221652514947L74.52000000000001,61.83733093361387L75.06,62.49706576438942L75.60000000000001,63.01157180173516L76.13999999999999,62.370943703472534L76.67999999999999,61.7492330302119L77.22,62.088208069164736L77.75999999999999,63.12225967432609L78.3,64.09868959060641L78.83999999999999,64.32854858719111L79.38,62.211794517533775L79.92,62.95907772904444L80.46,64.3567793766209L81,64.36473378337712L81.53999999999999,65.3188416846432L82.08,65.17930498249359L82.62,66.16358335729656L83.16,66.16081761469175L83.7,66.87115607549586L84.24,67.29735915197833L84.78,66.95974823038125L85.32000000000001,66.28251404881684L85.86,66.469509843907L86.4,67.88703799481468L86.94,66.95755658289956L87.48,67.34919945642055L88.02000000000001,68.6521855766259L88.56,67.65397894628937L89.10000000000001,68.00438668875752L89.64,68.92663277714766L90.18,69.00531280157558L90.72,69.88318739802196L91.26,69.57924557410014L91.80000000000001,70.4648808758398L92.34,71.114927195764L92.88,71.62362366314117L93.41999999999999,71.33550877608091L93.96,70.6879722152386L94.5,70.18078160331055L95.03999999999999,71.06313630766911L95.58,71.82988294458734L96.11999999999999,70.74726290203938L96.66,72.1150229932734L97.2,71.86768218846332L97.74,70.65127730948456L98.28,72.65076794176933L98.82,73.49445983141446L99.36,73.88200982632111L99.9,74.47053877644859L100.44,73.63699061155195L100.98,74.32352724758711L101.52,74.26078160060204L102.06,74.34180288783368L102.6,73.44108040296031L103.14,74.91798256534138L103.68,74.38012451349377L104.22,74.29473996014605L104.76,74.48084304244048L105.3,74.11784079975324L105.84,75.32403880341712L106.38000000000001,74.38642444203614L106.92,73.82385582520756L107.46000000000001,75.1476478186897L108,73.21258945510696L108.54,75.25555208869326L109.08000000000001,75.65066308705538L109.62,76.24373217579841L110.16,76.83690744334729L110.69999999999999,77.07414392845396L111.24,76.14848542342523L111.78,78.32242388008002L112.32,78.55878655798017L112.86,80.36193732829956L113.39999999999999,80.13849711663764L113.94,80.24176326740132L114.47999999999999,79.47305637606988L115.02,78.77450196351016L115.56,79.6606999898279L116.1,79.48042089925158L116.64,79.60958725920885L117.17999999999999,79.68708707518324L117.72,79.85225210364825L118.26,79.23934967781804L118.8,80.29561110813839L119.34,80.33603166230176L119.88,82.49628478698526L120.42,81.89376968391295L120.96000000000001,81.41359548318916L121.5,81.24415610163531L122.04,82.32916154421838L122.58,82.98016480976825L123.12,83.72676572228164L123.66000000000001,84.53072522297317L124.2,84.06376920271803L124.74000000000001,84.02092940486803L125.28,83.75789171185495L125.82000000000001,85.61740121280988L126.36000000000001,83.05444163304074L126.89999999999999,83.05933037333591L127.44,82.94359847863258L127.97999999999999,83.94215973790334L128.51999999999998,83.23596228306998L129.06,84.11757802056577L129.6,84.52787878764056L130.14,85.36739555191427L130.68,85.04043902868885L131.22,84.60693130045053L131.76,84.82149075557142L132.3,86.25556063903979L132.84,86.64133494051462L133.38,87.11013333570263L133.92,90.00208079360705L134.46,89.83858229046733L135,89.3844842354L135.54,90.06135712302967L136.08,88.92481283090856L136.62,88.2428862556359L137.16,89.49506524232274L137.7,89.89037191288021L138.24,90.24622282236625L138.78,89.0357322505105L139.32,88.42810658281975L139.86,88.41953013538877L140.4,87.22771873195704L140.94,87.46196361056806L141.48000000000002,88.55184402667588L142.02,88.49377260170246L142.56,89.28959632850804L143.1,89.41109161140793L143.64000000000001,89.3653218739963L144.18,90.16852661333898L144.72,89.34511701481989L145.26000000000002,90.27507060498466L145.8,93.68104322590712L146.34,93.82595982057819L146.88000000000002,93.43824214877469L147.42000000000002,93.79894608145028L147.96,94.49003430139066L148.5,93.2433540697756L149.04000000000002,92.2580121165035L149.58,92.6161404334814L150.12,91.64435012042388L150.66000000000003,93.0786098176233L151.20000000000002,94.17649945024601L151.74,94.12323355518154L152.27999999999997,95.15927264596445L152.82,95.30623024009918L153.35999999999999,94.91973893624498L153.89999999999998,94.45051033962939L154.44,93.1009727855673L154.98,93.71524960240626L155.51999999999998,94.67715022826734L156.06,93.59295744020467L156.6,92.94244176736707L157.14,91.95879782790682L157.67999999999998,94.09794502390272L158.22,96.8054344590476L158.76,97.83659358437681L159.29999999999998,97.62462247778471L159.84,97.97210744243559L160.38,97.70593079262L160.92,99.08889105915839L161.45999999999998,97.42666747371244L162,97.97200134714379L162.54,98.18053476405105L163.07999999999998,98.3056548141954L163.62,98.9740596117686L164.16,97.35776860527858L164.7,97.93066202608347L165.24,97.6810635428087L165.78,99.0739707092716L166.32,98.36704875272159L166.85999999999999,97.58689662560808L167.4,98.18680397716157L167.94,96.64808317848241L168.48,98.57284939782737L169.02,98.77837564049315L169.56,99.96969178218535L170.1,101.04048218865529L170.64000000000001,101.5642895253857L171.18,102.47190669491053L171.72,102.66047804344194L172.26,103.12961980574428L172.8,103.1737710488226L173.34,104.26826219076233L173.88,102.67029094486028L174.42000000000002,102.06750715050254L174.96,100.75650515321784L175.5,102.46190370021597L176.04000000000002,102.17980861801905L176.58,101.53588570836585L177.12,101.62419782290898L177.66,102.62651858057603L178.20000000000002,102.27857754623507L178.74,103.0191464145717L179.28,103.2261539212706L179.82000000000002,103.70635914674453L180.36,103.28248260739082L180.9,102.79082286947549L181.44,105.1064936792468L181.98000000000002,106.49589616510956L182.52,106.38020416768605L183.06,106.19212206208039L183.60000000000002,106.55394042732317L184.14000000000001,105.10969828288951L184.68,106.26048511299211L185.22000000000003,106.23895753641557L185.76,106.81937375795623L186.29999999999998,107.64229111948677L186.83999999999997,107.30537495461544L187.38,107.34055906999573L187.92,107.24300263207238L188.45999999999998,107.30313567646989L189,105.440548525226L189.54,104.67899518766318L190.07999999999998,105.40873048836976L190.61999999999998,106.43990443628027L191.16,105.99061017720497L191.7,105.95836566779174L192.23999999999998,106.53235349790151L192.78,106.75807928881584L193.32,109.62284832303646L193.85999999999999,110.03637553317303L194.4,112.0644919299858L194.94,112.56936209343537L195.48,111.92295070256391L196.01999999999998,111.65377077519258L196.56,111.49226281876977L197.1,110.8020235091584L197.64,110.50654683054312L198.18,111.87192884807283L198.72,111.86049147680102L199.26,111.85362905403791L199.8,111.3748439717739L200.34,112.5115722716917L200.88,111.76960990236617L201.42,111.91776524825742L201.96,111.65065950260868L202.5,110.77839638058133L203.04,109.54303706445567L203.58,106.54715554371441L204.12,106.8856274234551L204.66,107.56337641163456L205.2,111.76735976030702L205.74,114.05241595520738L206.28,114.47411618320643L206.82,114.60846941285432L207.36,115.63841483958424L207.9,116.13771518847065L208.44,116.4372953978025L208.98000000000002,116.6170435234016L209.52,114.58889337484673L210.06,115.62666921677969L210.6,115.53733504730134L211.14000000000001,116.19573422025245L211.68,115.16677437474691L212.22,115.61739709526518L212.76000000000002,115.17577105293802L213.3,114.55479647435823L213.84,113.82621100575574L214.38000000000002,113.8637273532004L214.92000000000002,114.12356920769915L215.46,114.16080741324686L216,113.35248375478585L216.54000000000002,113.57949100261847L217.08,117.8690282602663L217.62,119.84941607909731L218.16000000000003,120.32564909575778L218.70000000000002,120.2553899525706L219.24,119.9759006523552L219.77999999999997,120.63887365401561L220.32,120.2059908732222L220.85999999999999,119.11559462295651L221.39999999999998,119.05468964028367L221.94,117.59414730140374L222.48,118.85382092199012L223.01999999999998,119.60962509434194L223.56,119.23244101596339L224.1,118.65013161575277L224.64,119.01274565026449L225.17999999999998,117.92497986057572L225.72,117.27232038676246L226.26,117.4740592382322L226.79999999999998,117.23910182765943L227.34,117.45412810277037L227.88,117.58314386783697L228.42,118.37255300151502L228.95999999999998,121.57553204139388L229.5,122.78531979068309L230.04,124.69785885936534L230.57999999999998,124.7773827886175L231.12,125.77442975097443L231.66,125.77932427676646L232.2,125.42626203905817L232.74,124.73975706782704L233.28,124.683854806543L233.82,123.8196468679829L234.35999999999999,123.5384541508788L234.9,122.65773884597823L235.44,122.1293096630379L235.98,123.23625327082104L236.52,123.42575180688476L237.06,122.11545157924678L237.6,122.27860493160517L238.14000000000001,121.0711627326244L238.68,121.29603090217714L239.22,121.5496187110603L239.76,121.82043830354176L240.3,121.38959552327293L240.84,125.28442364819546L241.38,127.97732124460359L241.92000000000002,129.71172582546444L242.46,129.4470352477207L243,129.05088797090696L243.54000000000002,128.45719976749965L244.08,128.21965286847123L244.62,128.19579163620574L245.16,128.06280798969487L245.70000000000002,127.03368431284719L246.24,127.0095437583607L246.78,126.28305886689513L247.32000000000002,126.20316865347041L247.86,125.20590103647439L248.4,125.6755408623695L248.94,125.83865785075506L249.48000000000002,125.93652804378637L250.02,126.1139170667567L250.56,125.03368317729462L251.10000000000002,125.09754251825548L251.64000000000001,125.49185884428663L252.18,125.84711554705686L252.72000000000003,129.97626954749973L253.26,131.7417613889918L253.79999999999998,132.32638974941642L254.33999999999997,132.32116692835214L254.88,132.67403307303263L255.42,131.5804194335807L255.95999999999998,131.04291815706105L256.5,131.07641722846833L257.03999999999996,130.3845169966746L257.58,130.08804376474987L258.12,130.50349259308163L258.65999999999997,130.3967620527616L259.2,130.5700575428727L259.74,130.6740348369393L260.28,130.26175446890872L260.82,129.6583864107713L261.36,129.53369850605637L261.9,128.86555211160527L262.44,128.46466427493462L262.98,129.05479815472188L263.52,128.69687880795613L264.06,128.6007941070482" style="fill: none;" fill="none"></path></g></g></g></g><g opacity="0.2"><g><g><g><path stroke="rgb(255, 112, 67)" stroke-width="2px" d="M28.619999999999997,-9.19665789604187L29.16,0.5933398405711046L29.7,5.0433355967203966L30.240000000000002,10.97666327158612L30.78,9.493331352869689L31.32,12.16333234310153L31.86,13.64666426181796L32.4,16.613336940606445L32.94,16.316665252049773L33.48,18.690003395080595L34.02,22.546664615472167L34.56,21.063332696755737L35.1,23.733333686987578L35.64,23.43667083978653L36.18,25.8100001414617L36.720000000000006,26.10666298866272L37.260000000000005,24.92000275850296L37.800000000000004,31.743336657683074L38.339999999999996,28.18332944313687L38.879999999999995,33.820003112157224L39.419999999999995,30.55666758616769L39.96,29.96333305040997L40.5,33.226668576399504L41.04,35.896669566631346L41.58,34.116665959358244L42.12,34.116665959358244L42.660000000000004,35.303335030873654L43.2,40.64333701133731L43.74,35.599997878074674L44.28,31.446664969126402L44.82,39.753330787022946L45.36,41.23666270573938L45.900000000000006,36.786666949590085L46.44,38.269998868306516L46.98,40.64333701133731L47.519999999999996,42.42333177725476L48.059999999999995,42.72000346581143L48.6,45.38999561468762L49.14,44.79666992028558L49.68,47.466670910517394L50.22,46.57666468620303L50.76,47.466670910517394L51.3,47.466670910517394L51.84,44.79666992028558L52.38,48.65333114067715L52.92,53.399998585383116L53.46,53.399998585383116L54,47.16999922196072L54.540000000000006,52.51000120242439L55.08,49.840000212192564L55.62,51.02666928370796L56.16,49.24666567643487L56.699999999999996,51.32333213090898L57.239999999999995,52.21332951386772L57.78,50.136663059393584L58.32,56.95999695857368L58.86,55.18000219265622L59.4,51.02666928370796L59.94,52.21332951386772L60.480000000000004,53.99333312114082L61.02,52.51000120242439L61.56,54.58666765689851L62.1,54.28999596834184L62.64,57.256668647130354L63.18000000000001,56.06999957561494L63.72,58.14666603008908L64.25999999999999,56.66333411137265L64.8,58.44333771864575L65.34,56.66333411137265L65.88,59.333335101604476L66.42,56.95999695857368L66.96,54.28999596834184L67.5,57.553331494331374L68.04,61.11332986752194L68.58,58.14666603008908L69.12,59.036663413047805L69.66,57.256668647130354L70.2,59.333335101604476L70.74000000000001,60.52000417311989L71.28,64.08000254631044L71.82000000000001,59.333335101604476L72.36,58.740000565846785L72.9,63.18999632199608L73.44000000000001,62.29999893903734L73.98,58.44333771864575L74.52000000000001,64.08000254631044L75.06,63.48666801055275L75.60000000000001,63.78333085775377L76.13999999999999,61.41000155607861L76.67999999999999,60.81666702032091L77.22,62.59667062759401L77.75999999999999,64.67333708206814L78.3,65.56333446502687L78.83999999999999,64.67333708206814L79.38,59.036663413047805L79.92,64.08000254631044L80.46,66.45333184798561L81,64.37666539351147L81.53999999999999,66.75000353654228L82.08,64.96999992926918L82.62,67.640000919501L83.16,66.15666900078458L83.7,67.93666376670204L84.24,67.93666376670204L84.78,66.45333184798561L85.32000000000001,65.2666627764702L85.86,66.75000353654228L86.4,70.01333022117616L86.94,65.56333446502687L87.48,67.93666376670204L88.02000000000001,70.60666475693387L88.56,66.15666900078458L89.10000000000001,68.52999830245973L89.64,70.31000190973283L90.18,69.12333283821744L90.72,71.19999929269157L91.26,69.12333283821744L91.80000000000001,71.79333382844926L92.34,72.0899966756503L92.88,72.38666836420697L93.41999999999999,70.90333644549054L93.96,69.71666737397514L94.5,69.41999568541847L95.03999999999999,72.38666836420697L95.58,72.98000289996467L96.11999999999999,69.12333283821744L96.66,74.16666313012443L97.2,71.49667098124824L97.74,68.8266699910164L98.28,75.6500038901965L98.82,74.75999766588212L99.36,74.4633348186811L99.9,75.35333220163983L100.44,72.38666836420697L100.98,75.35333220163983L101.52,74.16666313012443L102.06,74.4633348186811L102.6,72.0899966756503L103.14,77.13333580891293L103.68,73.57333743572237L104.22,74.16666313012443L104.76,74.75999766588212L105.3,73.57333743572237L105.84,77.13333580891293L106.38000000000001,72.98000289996467L106.92,72.98000289996467L107.46000000000001,77.13333580891293L108,70.31000190973283L108.54,78.31999603907269L109.08000000000001,76.24332958459856L109.62,77.13333580891293L110.16,77.72667034467064L110.69999999999999,77.42999865611397L111.24,74.75999766588212L111.78,81.58333156506222L112.32,78.9133305748304L112.86,83.06666348377865L113.39999999999999,79.80333679914476L113.94,80.39666249354683L114.47999999999999,78.31999603907269L115.02,77.72667034467064L115.56,80.98999702930452L116.1,79.21000226338707L116.64,79.80333679914476L117.17999999999999,79.80333679914476L117.72,80.0999996463458L118.26,78.31999603907269L118.8,81.8800032536189L119.34,80.39666249354683L119.88,85.73666447401048L120.42,80.98999702930452L120.96000000000001,80.6933341821035L121.5,80.98999702930452L122.04,83.95666970809303L122.58,83.95666970809303L123.12,84.84666709105176L123.66000000000001,85.73666447401048L124.2,83.36333517233533L124.74000000000001,83.95666970809303L125.28,83.36333517233533L125.82000000000001,88.40666546424232L126.36000000000001,79.21000226338707L126.89999999999999,83.06666348377865L127.44,82.77000063657762L127.97999999999999,85.44000162680946L128.51999999999998,82.17666610081993L129.06,85.44000162680946L129.6,85.14332993825279L130.14,86.62667069832486L130.68,84.55000424385072L131.22,83.95666970809303L131.76,85.14332993825279L132.3,88.40666546424232L132.84,87.21999639272691L133.38,87.81333092848462L133.92,94.34000198046368L134.46,89.59333453575772L135,88.703337152799L135.54,91.07666645447415L136.08,87.21999639272691L136.62,87.21999639272691L137.16,91.373333722353L137.7,90.48333191871644L138.24,90.77999918659529L138.78,87.21999639272691L139.32,87.51666808128358L139.86,88.40666546424232L140.4,85.44000162680946L140.94,87.81333092848462L141.48000000000002,90.1866646508376L142.02,88.40666546424232L142.56,90.48333191871644L143.1,89.59333453575772L143.64000000000001,89.29666726787886L144.18,91.373333722353L144.72,88.11000261704129L145.26000000000002,91.67000099023184L145.8,98.79000215729079L146.34,94.04333471258482L146.88000000000002,92.85666564106943L147.42000000000002,94.34000198046368L147.96,95.52666663130125L148.5,91.373333722353L149.04000000000002,90.77999918659529L149.58,93.15333290894827L150.12,90.1866646508376L150.66000000000003,95.22999936342241L151.20000000000002,95.82333389918011L151.74,94.04333471258482L152.27999999999997,96.71333128213884L152.82,95.52666663130125L153.35999999999999,94.34000198046368L153.89999999999998,93.74666744470598L154.44,91.07666645447415L154.98,94.6366648276647L155.51999999999998,96.12000116705896L156.06,91.9666682581107L156.6,91.9666682581107L157.14,90.48333191871644L157.67999999999998,97.30666581789654L158.22,100.86666861176492L158.76,99.38333227237067L159.29999999999998,97.30666581789654L159.84,98.49333488941194L160.38,97.30666581789654L160.92,101.16333145896596L161.45999999999998,94.93333209554356L162,98.79000215729079L162.54,98.49333488941194L163.07999999999998,98.49333488941194L163.62,99.97666680812837L164.16,94.93333209554356L164.7,98.79000215729079L165.24,97.30666581789654L165.78,101.16333145896596L166.32,97.30666581789654L166.85999999999999,96.4166684349378L167.4,99.08666500449182L167.94,94.34000198046368L168.48,101.4599987268448L169.02,99.08666500449182L169.56,101.75666599472365L170.1,102.6466677983602L170.64000000000001,102.35000053048135L171.18,103.83333244919778L171.72,102.94333506623906L172.26,103.83333244919778L172.8,103.23999791344008L173.34,105.90999890367192L173.88,100.27333407600722L174.42000000000002,101.16333145896596L174.96,98.79000215729079L175.5,105.02000152071318L176.04000000000002,101.75666599472365L176.58,100.57000134388608L177.12,101.75666599472365L177.66,104.12999971707663L178.20000000000002,101.75666599472365L178.74,104.12999971707663L179.28,103.53666518131894L179.82000000000002,104.42666698495549L180.36,102.6466677983602L180.9,102.05333326260251L181.44,108.57999989390375L181.98000000000002,108.57999989390375L182.52,106.20666617155076L183.06,105.90999890367192L183.60000000000002,107.09666797518732L184.14000000000001,102.94333506623906L184.68,107.98666535814604L185.22000000000003,106.20666617155076L185.76,107.6899980902672L186.29999999999998,108.87666716178259L186.83999999999997,106.80000070730847L187.38,107.39333524306616L187.92,107.09666797518732L188.45999999999998,107.39333524306616L189,102.6466677983602L189.54,103.53666518131894L190.07999999999998,106.50333343942961L190.61999999999998,107.98666535814604L191.16,105.31666878859204L191.7,105.90999890367192L192.23999999999998,107.39333524306616L192.78,107.09666797518732L193.32,113.92000187436741L193.85999999999999,110.65666634837788L194.4,115.10666652520499L194.94,113.32666733860971L195.48,110.95333361625673L196.01999999999998,111.25000088413557L196.56,111.25000088413557L197.1,109.76666454474133L197.64,110.06333181262018L198.18,113.92000187436741L198.72,111.84333541989328L199.26,111.84333541989328L199.8,110.65666634837788L200.34,114.21666472156843L200.88,110.65666634837788L201.42,112.13999826709431L201.96,111.25000088413557L202.5,109.4700016975403L203.04,107.6899980902672L203.58,102.05333326260251L204.12,107.39333524306616L204.66,108.57999989390375L205.2,118.07333478331566L205.74,117.48000024755797L206.28,115.10666652520499L206.82,114.80999925732613L207.36,117.18333297967911L207.9,116.88666571180028L208.44,116.88666571180028L208.98000000000002,116.88666571180028L209.52,111.54666815201443L210.06,117.18333297967911L210.6,115.40333379308385L211.14000000000001,117.18333297967911L211.68,113.62333460648856L212.22,116.29333117604256L212.76000000000002,114.5133319894473L213.3,113.62333460648856L213.84,112.733332802852L214.38000000000002,113.92000187436741L214.92000000000002,114.5133319894473L215.46,114.21666472156843L216,112.13999826709431L216.54000000000002,113.92000187436741L217.08,124.30333414673805L217.62,122.81999780734381L218.16000000000003,121.03999862074852L218.70000000000002,120.15000123778981L219.24,119.55666670203209L219.77999999999997,121.63333315650624L220.32,119.55666670203209L220.85999999999999,117.48000024755797L221.39999999999998,118.9633321662744L221.94,115.40333379308385L222.48,120.74333135286969L223.01999999999998,120.74333135286969L223.56,118.66666489839554L224.1,117.77666751543683L224.64,119.55666670203209L225.17999999999998,116.29333117604256L225.72,116.29333117604256L226.26,117.77666751543683L226.79999999999998,116.88666571180028L227.34,117.77666751543683L227.88,117.77666751543683L228.42,119.55666670203209L228.95999999999998,126.3800006012122L229.5,124.60000141461691L230.04,127.5666674623887L230.57999999999998,124.89666868249577L231.12,127.27000019450983L231.66,125.78666606545448L232.2,124.89666868249577L232.74,123.70999961098036L233.28,124.60000141461691L233.82,122.52333496014279L234.35999999999999,123.11666507522267L234.9,121.33666588862738L235.44,121.33666588862738L235.98,124.89666868249577L236.52,123.70999961098036L237.06,120.15000123778981L237.6,122.52333496014279L238.14000000000001,119.25999943415326L238.68,121.63333315650624L239.22,121.93000042438507L239.76,122.22666769226393L240.3,120.74333135286969L240.84,131.12666583557925L241.38,132.0166676392158L241.92000000000002,132.31333269675574L242.46,129.04999938110512L243,128.45666705568632L243.54000000000002,127.5666674623887L244.08,127.86333251992863L244.62,128.15999978780746L245.16,127.86333251992863L245.70000000000002,125.48999879757565L246.24,126.97333292663097L246.78,125.19333152969679L247.32000000000002,126.08333333333334L247.86,123.70999961098036L248.4,126.3800006012122L248.94,126.08333333333334L249.48000000000002,126.08333333333334L250.02,126.3800006012122L250.56,123.4133323431015L251.10000000000002,125.19333152969679L251.64000000000001,126.08333333333334L252.18,126.3800006012122L252.72000000000003,136.17000054816407L253.26,134.38999915122986L253.79999999999998,133.20333229005337L254.33999999999997,132.31333269675574L254.88,133.20333229005337L255.42,129.93999897440276L255.95999999999998,130.23666624228161L256.5,131.12666583557925L257.03999999999996,129.34666664898396L257.58,129.64333391686282L258.12,131.12666583557925L258.65999999999997,130.23666624228161L259.2,130.8300007780393L259.74,130.8300007780393L260.28,129.64333391686282L260.82,128.75333432356518L261.36,129.34666664898396L261.9,127.86333251992863L262.44,127.86333251992863L262.98,129.93999897440276L263.52,128.15999978780746L264.06,128.45666705568632" style="fill: none;" fill="none"></path></g></g></g></g></g></g><g transform="translate(60, 178)" clip-path="url(#clip_1)"><clipPath id="clip_1"><rect width="270" height="22"></rect></clipPath><g><g><line x1="0" y1="0" x2="0" y2="5" style="visibility: inherit;" fill="rgb(0, 0, 0)" stroke="rgb(204, 204, 204)" stroke-width="1px"></line><line x1="27" y1="0" x2="27" y2="5" style="visibility: inherit;" fill="rgb(0, 0, 0)" stroke="rgb(204, 204, 204)" stroke-width="1px"></line><line x1="54" y1="0" x2="54" y2="5" style="visibility: inherit;" fill="rgb(0, 0, 0)" stroke="rgb(204, 204, 204)" stroke-width="1px"></line><line x1="81" y1="0" x2="81" y2="5" style="visibility: inherit;" fill="rgb(0, 0, 0)" stroke="rgb(204, 204, 204)" stroke-width="1px"></line><line x1="108" y1="0" x2="108" y2="5" style="visibility: inherit;" fill="rgb(0, 0, 0)" stroke="rgb(204, 204, 204)" stroke-width="1px"></line><line x1="135" y1="0" x2="135" y2="5" style="visibility: inherit;" fill="rgb(0, 0, 0)" stroke="rgb(204, 204, 204)" stroke-width="1px"></line><line x1="162" y1="0" x2="162" y2="5" style="visibility: inherit;" fill="rgb(0, 0, 0)" stroke="rgb(204, 204, 204)" stroke-width="1px"></line><line x1="189" y1="0" x2="189" y2="5" style="visibility: inherit;" fill="rgb(0, 0, 0)" stroke="rgb(204, 204, 204)" stroke-width="1px"></line><line x1="216" y1="0" x2="216" y2="5" style="visibility: inherit;" fill="rgb(0, 0, 0)" stroke="rgb(204, 204, 204)" stroke-width="1px"></line><line x1="243" y1="0" x2="243" y2="5" style="visibility: inherit;" fill="rgb(0, 0, 0)" stroke="rgb(204, 204, 204)" stroke-width="1px"></line><line x1="270" y1="0" x2="270" y2="5" style="visibility: inherit;" fill="rgb(0, 0, 0)" stroke="rgb(204, 204, 204)" stroke-width="1px"></line></g><g transform="translate(0, 8)"><text x="0" y="0" dx="0em" dy="0.95em" style="text-anchor: middle; visibility: hidden; font-family: &quot;Helvetica Neue&quot;, sans-serif; font-size: 12px; font-weight: 200;" fill="rgb(50, 49, 63)" stroke="none" stroke-width="1px">-50</text><text x="27" y="0" dx="0em" dy="0.95em" style="text-anchor: middle; visibility: inherit; font-family: &quot;Helvetica Neue&quot;, sans-serif; font-size: 12px; font-weight: 200;" fill="rgb(50, 49, 63)" stroke="none" stroke-width="1px">0</text><text x="54" y="0" dx="0em" dy="0.95em" style="text-anchor: middle; visibility: inherit; font-family: &quot;Helvetica Neue&quot;, sans-serif; font-size: 12px; font-weight: 200;" fill="rgb(50, 49, 63)" stroke="none" stroke-width="1px">50</text><text x="81" y="0" dx="0em" dy="0.95em" style="text-anchor: middle; visibility: inherit; font-family: &quot;Helvetica Neue&quot;, sans-serif; font-size: 12px; font-weight: 200;" fill="rgb(50, 49, 63)" stroke="none" stroke-width="1px">100</text><text x="108" y="0" dx="0em" dy="0.95em" style="text-anchor: middle; visibility: inherit; font-family: &quot;Helvetica Neue&quot;, sans-serif; font-size: 12px; font-weight: 200;" fill="rgb(50, 49, 63)" stroke="none" stroke-width="1px">150</text><text x="135" y="0" dx="0em" dy="0.95em" style="text-anchor: middle; visibility: inherit; font-family: &quot;Helvetica Neue&quot;, sans-serif; font-size: 12px; font-weight: 200;" fill="rgb(50, 49, 63)" stroke="none" stroke-width="1px">200</text><text x="162" y="0" dx="0em" dy="0.95em" style="text-anchor: middle; visibility: inherit; font-family: &quot;Helvetica Neue&quot;, sans-serif; font-size: 12px; font-weight: 200;" fill="rgb(50, 49, 63)" stroke="none" stroke-width="1px">250</text><text x="189" y="0" dx="0em" dy="0.95em" style="text-anchor: middle; visibility: inherit; font-family: &quot;Helvetica Neue&quot;, sans-serif; font-size: 12px; font-weight: 200;" fill="rgb(50, 49, 63)" stroke="none" stroke-width="1px">300</text><text x="216" y="0" dx="0em" dy="0.95em" style="text-anchor: middle; visibility: inherit; font-family: &quot;Helvetica Neue&quot;, sans-serif; font-size: 12px; font-weight: 200;" fill="rgb(50, 49, 63)" stroke="none" stroke-width="1px">350</text><text x="243" y="0" dx="0em" dy="0.95em" style="text-anchor: middle; visibility: inherit; font-family: &quot;Helvetica Neue&quot;, sans-serif; font-size: 12px; font-weight: 200;" fill="rgb(50, 49, 63)" stroke="none" stroke-width="1px">400</text><text x="270" y="0" dx="0em" dy="0.95em" style="text-anchor: middle; visibility: hidden; font-family: &quot;Helvetica Neue&quot;, sans-serif; font-size: 12px; font-weight: 200;" fill="rgb(50, 49, 63)" stroke="none" stroke-width="1px">450</text></g><line x1="0" y1="0" x2="270" y2="0" fill="rgb(0, 0, 0)" stroke="rgb(204, 204, 204)" stroke-width="1px"></line></g></g></g></g></svg>