<svg viewBox="0 0 330 200" xmlns="http://www.w3.org/2000/svg"><g><g><g><g><g><line x1="60" y1="178" x2="55" y2="178" style="visibility: inherit;" fill="rgb(0, 0, 0)" stroke="rgb(204, 204, 204)" stroke-width="1px"></line><line x1="60" y1="163.16666666666666" x2="55" y2="163.16666666666666" style="visibility: inherit;" fill="rgb(0, 0, 0)" stroke="rgb(204, 204, 204)" stroke-width="1px"></line><line x1="60" y1="148.33333333333334" x2="55" y2="148.33333333333334" style="visibility: inherit;" fill="rgb(0, 0, 0)" stroke="rgb(204, 204, 204)" stroke-width="1px"></line><line x1="60" y1="133.5" x2="55" y2="133.5" style="visibility: inherit;" fill="rgb(0, 0, 0)" stroke="rgb(204, 204, 204)" stroke-width="1px"></line><line x1="60" y1="118.66666666666667" x2="55" y2="118.66666666666667" style="visibility: inherit;" fill="rgb(0, 0, 0)" stroke="rgb(204, 204, 204)" stroke-width="1px"></line><line x1="60" y1="103.83333333333334" x2="55" y2="103.83333333333334" style="visibility: inherit;" fill="rgb(0, 0, 0)" stroke="rgb(204, 204, 204)" stroke-width="1px"></line><line x1="60" y1="89.00000000000001" x2="55" y2="89.00000000000001" style="visibility: inherit;" fill="rgb(0, 0, 0)" stroke="rgb(204, 204, 204)" stroke-width="1px"></line><line x1="60" y1="74.16666666666669" x2="55" y2="74.16666666666669" style="visibility: inherit;" fill="rgb(0, 0, 0)" stroke="rgb(204, 204, 204)" stroke-width="1px"></line><line x1="60" y1="59.33333333333336" x2="55" y2="59.33333333333336" style="visibility: inherit;" fill="rgb(0, 0, 0)" stroke="rgb(204, 204, 204)" stroke-width="1px"></line><line x1="60" y1="44.50000000000003" x2="55" y2="44.50000000000003" style="visibility: inherit;" fill="rgb(0, 0, 0)" stroke="rgb(204, 204, 204)" stroke-width="1px"></line><line x1="60" y1="29.666666666666686" x2="55" y2="29.666666666666686" style="visibility: inherit;" fill="rgb(0, 0, 0)" stroke="rgb(204, 204, 204)" stroke-width="1px"></line><line x1="60" y1="14.833333333333343" x2="55" y2="14.833333333333343" style="visibility: inherit;" fill="rgb(0, 0, 0)" stroke="rgb(204, 204, 204)" stroke-width="1px"></line><line x1="60" y1="0" x2="55" y2="0" style="visibility: inherit;" fill="rgb(0, 0, 0)" stroke="rgb(204, 204, 204)" stroke-width="1px"></line></g><g transform="translate(50, 0)"><text x="0" y="178" dx="0em" dy="0.3em" style="text-anchor: end; visibility: hidden; font-family: &quot;Helvetica Neue&quot;, sans-serif; font-size: 12px; font-weight: 200;" fill="rgb(50, 49, 63)" stroke="none" stroke-width="1px">-0.05</text><text x="0" y="163.16666666666666" dx="0em" dy="0.3em" style="text-anchor: end; visibility: inherit; font-family: &quot;Helvetica Neue&quot;, sans-serif; font-size: 12px; font-weight: 200;" fill="rgb(50, 49, 63)" stroke="none" stroke-width="1px">0</text><text x="0" y="148.33333333333334" dx="0em" dy="0.3em" style="text-anchor: end; visibility: hidden; font-family: &quot;Helvetica Neue&quot;, sans-serif; font-size: 12px; font-weight: 200;" fill="rgb(50, 49, 63)" stroke="none" stroke-width="1px">0.05</text><text x="0" y="133.5" dx="0em" dy="0.3em" style="text-anchor: end; visibility: inherit; font-family: &quot;Helvetica Neue&quot;, sans-serif; font-size: 12px; font-weight: 200;" fill="rgb(50, 49, 63)" stroke="none" stroke-width="1px">0.1</text><text x="0" y="118.66666666666667" dx="0em" dy="0.3em" style="text-anchor: end; visibility: hidden; font-family: &quot;Helvetica Neue&quot;, sans-serif; font-size: 12px; font-weight: 200;" fill="rgb(50, 49, 63)" stroke="none" stroke-width="1px">0.15</text><text x="0" y="103.83333333333334" dx="0em" dy="0.3em" style="text-anchor: end; visibility: inherit; font-family: &quot;Helvetica Neue&quot;, sans-serif; font-size: 12px; font-weight: 200;" fill="rgb(50, 49, 63)" stroke="none" stroke-width="1px">0.2</text><text x="0" y="89.00000000000001" dx="0em" dy="0.3em" style="text-anchor: end; visibility: hidden; font-family: &quot;Helvetica Neue&quot;, sans-serif; font-size: 12px; font-weight: 200;" fill="rgb(50, 49, 63)" stroke="none" stroke-width="1px">0.25</text><text x="0" y="74.16666666666669" dx="0em" dy="0.3em" style="text-anchor: end; visibility: inherit; font-family: &quot;Helvetica Neue&quot;, sans-serif; font-size: 12px; font-weight: 200;" fill="rgb(50, 49, 63)" stroke="none" stroke-width="1px">0.3</text><text x="0" y="59.33333333333336" dx="0em" dy="0.3em" style="text-anchor: end; visibility: hidden; font-family: &quot;Helvetica Neue&quot;, sans-serif; font-size: 12px; font-weight: 200;" fill="rgb(50, 49, 63)" stroke="none" stroke-width="1px">0.35</text><text x="0" y="44.50000000000003" dx="0em" dy="0.3em" style="text-anchor: end; visibility: inherit; font-family: &quot;Helvetica Neue&quot;, sans-serif; font-size: 12px; font-weight: 200;" fill="rgb(50, 49, 63)" stroke="none" stroke-width="1px">0.4</text><text x="0" y="29.666666666666686" dx="0em" dy="0.3em" style="text-anchor: end; visibility: hidden; font-family: &quot;Helvetica Neue&quot;, sans-serif; font-size: 12px; font-weight: 200;" fill="rgb(50, 49, 63)" stroke="none" stroke-width="1px">0.45</text><text x="0" y="14.833333333333343" dx="0em" dy="0.3em" style="text-anchor: end; visibility: inherit; font-family: &quot;Helvetica Neue&quot;, sans-serif; font-size: 12px; font-weight: 200;" fill="rgb(50, 49, 63)" stroke="none" stroke-width="1px">0.5</text><text x="0" y="0" dx="0em" dy="0.3em" style="text-anchor: end; visibility: hidden; font-family: &quot;Helvetica Neue&quot;, sans-serif; font-size: 12px; font-weight: 200;" fill="rgb(50, 49, 63)" stroke="none" stroke-width="1px">0.55</text></g><line x1="60" y1="0" x2="60" y2="178" fill="rgb(0, 0, 0)" stroke="rgb(204, 204, 204)" stroke-width="1px"></line></g></g><g transform="translate(60, 0)" clip-path="url(#clip_0)"><clipPath id="clip_0"><rect width="270" height="178"></rect></clipPath><g><g><g><line x1="0" y1="0" x2="0" y2="178" fill="rgb(0, 0, 0)" stroke="rgb(60, 60, 60)" stroke-width="1px" opacity="0.25"></line><line x1="24.545454545454547" y1="0" x2="24.545454545454547" y2="178" fill="rgb(0, 0, 0)" stroke="rgb(60, 60, 60)" stroke-width="1px" opacity="0.25"></line><line x1="49.09090909090909" y1="0" x2="49.09090909090909" y2="178" fill="rgb(0, 0, 0)" stroke="rgb(60, 60, 60)" stroke-width="1px" opacity="0.25"></line><line x1="73.63636363636363" y1="0" x2="73.63636363636363" y2="178" fill="rgb(0, 0, 0)" stroke="rgb(60, 60, 60)" stroke-width="1px" opacity="0.25"></line><line x1="98.18181818181819" y1="0" x2="98.18181818181819" y2="178" fill="rgb(0, 0, 0)" stroke="rgb(60, 60, 60)" stroke-width="1px" opacity="0.25"></line><line x1="122.72727272727272" y1="0" x2="122.72727272727272" y2="178" fill="rgb(0, 0, 0)" stroke="rgb(60, 60, 60)" stroke-width="1px" opacity="0.25"></line><line x1="147.27272727272725" y1="0" x2="147.27272727272725" y2="178" fill="rgb(0, 0, 0)" stroke="rgb(60, 60, 60)" stroke-width="1px" opacity="0.25"></line><line x1="171.8181818181818" y1="0" x2="171.8181818181818" y2="178" fill="rgb(0, 0, 0)" stroke="rgb(60, 60, 60)" stroke-width="1px" opacity="0.25"></line><line x1="196.36363636363637" y1="0" x2="196.36363636363637" y2="178" fill="rgb(0, 0, 0)" stroke="rgb(60, 60, 60)" stroke-width="1px" opacity="0.25"></line><line x1="220.90909090909093" y1="0" x2="220.90909090909093" y2="178" fill="rgb(0, 0, 0)" stroke="rgb(60, 60, 60)" stroke-width="1px" opacity="0.25"></line><line x1="245.45454545454544" y1="0" x2="245.45454545454544" y2="178" fill="rgb(0, 0, 0)" stroke="rgb(60, 60, 60)" stroke-width="1px" opacity="0.25"></line><line x1="270" y1="0" x2="270" y2="178" fill="rgb(0, 0, 0)" stroke="rgb(60, 60, 60)" stroke-width="1px" opacity="0.25"></line></g><g><line x1="0" y1="178" x2="270" y2="178" fill="rgb(0, 0, 0)" stroke="rgb(60, 60, 60)" stroke-width="1px" opacity="0.25"></line><line x1="0" y1="163.16666666666666" x2="270" y2="163.16666666666666" fill="rgb(0, 0, 0)" stroke="rgb(60, 60, 60)" stroke-width="1px" opacity="0.25"></line><line x1="0" y1="148.33333333333334" x2="270" y2="148.33333333333334" fill="rgb(0, 0, 0)" stroke="rgb(60, 60, 60)" stroke-width="1px" opacity="0.25"></line><line x1="0" y1="133.5" x2="270" y2="133.5" fill="rgb(0, 0, 0)" stroke="rgb(60, 60, 60)" stroke-width="1px" opacity="0.25"></line><line x1="0" y1="118.66666666666667" x2="270" y2="118.66666666666667" fill="rgb(0, 0, 0)" stroke="rgb(60, 60, 60)" stroke-width="1px" opacity="0.25"></line><line x1="0" y1="103.83333333333334" x2="270" y2="103.83333333333334" fill="rgb(0, 0, 0)" stroke="rgb(60, 60, 60)" stroke-width="1px" opacity="0.25"></line><line x1="0" y1="89.00000000000001" x2="270" y2="89.00000000000001" fill="rgb(0, 0, 0)" stroke="rgb(60, 60, 60)" stroke-width="1px" opacity="0.25"></line><line x1="0" y1="74.16666666666669" x2="270" y2="74.16666666666669" fill="rgb(0, 0, 0)" stroke="rgb(60, 60, 60)" stroke-width="1px" opacity="0.25"></line><line x1="0" y1="59.33333333333336" x2="270" y2="59.33333333333336" fill="rgb(0, 0, 0)" stroke="rgb(60, 60, 60)" stroke-width="1px" opacity="0.25"></line><line x1="0" y1="44.50000000000003" x2="270" y2="44.50000000000003" fill="rgb(0, 0, 0)" stroke="rgb(60, 60, 60)" stroke-width="1px" opacity="0.25"></line><line x1="0" y1="29.666666666666686" x2="270" y2="29.666666666666686" fill="rgb(0, 0, 0)" stroke="rgb(60, 60, 60)" stroke-width="1px" opacity="0.25"></line><line x1="0" y1="14.833333333333343" x2="270" y2="14.833333333333343" fill="rgb(0, 0, 0)" stroke="rgb(60, 60, 60)" stroke-width="1px" opacity="0.25"></line><line x1="0" y1="0" x2="270" y2="0" fill="rgb(0, 0, 0)" stroke="rgb(60, 60, 60)" stroke-width="1px" opacity="0.25"></line></g></g></g><g><g><line x1="0" y1="163.16666666666666" x2="270" y2="163.16666666666666" fill="rgb(0, 0, 0)" stroke="rgb(153, 153, 153)" stroke-width="1.5px"></line></g></g><g><g><line x1="24.545454545454547" y1="0" x2="24.545454545454547" y2="178" fill="rgb(0, 0, 0)" stroke="rgb(153, 153, 153)" stroke-width="1.5px"></line></g></g><g><g><g><g><g><path stroke="rgb(255, 112, 67)" stroke-width="2px" d="M28.472727272727273,-1.9221185225231352L28.96363636363636,2.513762632375972L29.454545454545453,4.708588588935299L29.94545454545455,7.623362972876663L30.436363636363637,9.699179380048236L30.92727272727273,11.190009363480442L31.418181818181818,14.319633539495356L31.90909090909091,14.895193227249308L32.4,17.43716474333334L32.89090909090909,18.907604117132905L33.38181818181818,18.74348236779909L33.872727272727275,20.176337072749845L34.36363636363636,21.551432064004672L34.85454545454545,22.404459837522467L35.34545454545455,23.75485338973283L35.836363636363636,24.736456800183987L36.32727272727273,26.023247709828667L36.81818181818181,27.253740410114574L37.30909090909091,29.133560848199124L37.800000000000004,30.164468361238818L38.29090909090909,31.89296373573916L38.78181818181818,31.627317876179717L39.27272727272727,34.49869122240156L39.763636363636365,34.44964679703182L40.25454545454545,35.637522843397164L40.74545454545454,35.78327700213208L41.23636363636364,36.03826611404409L41.72727272727273,37.53576101551704L42.21818181818182,38.032535027761725L42.709090909090904,38.31917993681171L43.2,38.07695644084001L43.69090909090909,39.03309611483877L44.18181818181818,40.741355723465944L44.67272727272728,41.43012777999181L45.163636363636364,41.212949307864534L45.654545454545456,41.49697290593977L46.14545454545454,42.43875997918033L46.63636363636364,43.255545618165115L47.12727272727273,43.18751526794125L47.61818181818182,43.68609401935987L48.10909090909091,44.96922756846439L48.6,46.00965671709008L49.09090909090909,45.717019651157244L49.58181818181818,46.28848598827557L50.07272727272727,46.21154639579612L50.56363636363637,45.6454331246471L51.054545454545455,47.57504408563116L51.54545454545455,47.611691401431614L52.03636363636363,47.21634304882849L52.52727272727273,48.20747418619277L53.018181818181816,48.01475234478957L53.50909090909091,48.62814559728059L54,50.06426682188216L54.49090909090909,48.99361176956154L54.981818181818184,49.08132374089038L55.47272727272727,50.007317716684426L55.96363636363636,50.78232118376482L56.45454545454545,50.622469295392776L56.945454545454545,52.07788717905501L57.43636363636364,52.47687698300574L57.92727272727272,52.7749491744989L58.41818181818182,53.37020265740675L58.90909090909091,53.999180458083885L59.4,53.91218377476642L59.8909090909091,54.638559079124775L60.38181818181818,54.273177076948244L60.872727272727275,55.314109831793644L61.36363636363636,55.417913637405775L61.85454545454546,54.02814825485913L62.345454545454544,54.660642004673306L62.836363636363636,55.11737280090529L63.32727272727273,55.46285296877154L63.81818181818182,55.819192179441046L64.30909090909091,56.94771528744671L64.8,58.045440732463064L65.2909090909091,56.869381534471444L65.78181818181818,57.23078093573314L66.27272727272727,58.845067566503246L66.76363636363637,59.47307759873223L67.25454545454545,60.04378162037624L67.74545454545455,60.00223103092887L68.23636363636363,59.63519326206115L68.72727272727272,59.88677716666105L69.21818181818182,59.633065734785646L69.7090909090909,59.58401042291433L70.2,61.71284763456728L70.6909090909091,62.40646488134871L71.18181818181817,62.33601762452609L71.67272727272727,61.88722373802794L72.16363636363636,62.093750264799596L72.65454545454546,62.46662814610562L73.14545454545456,61.22590809182344L73.63636363636363,61.9169797804913L74.12727272727273,62.09664077998963L74.61818181818182,62.323251053343824L75.10909090909091,61.89337045628862L75.60000000000001,64.47718111681364L76.09090909090908,63.82225305243783L76.58181818181818,63.49163838071301L77.07272727272728,63.43317165280983L77.56363636363636,63.87880319539076L78.05454545454545,65.38177218149126L78.54545454545455,65.58042177822206L79.03636363636363,64.77364928682258L79.52727272727273,65.7395327517963L80.01818181818183,65.41425264057976L80.5090909090909,65.97375086254355L81,65.17147183799632L81.49090909090908,66.36241147746973L81.98181818181818,66.64903596538504L82.47272727272728,67.44327941436491L82.96363636363635,68.26244923412158L83.45454545454545,68.0942586795848L83.94545454545455,68.65970317540733L84.43636363636364,70.06912755977017L84.92727272727274,68.7282795747771L85.41818181818181,69.9020842298262L85.9090909090909,70.10469435757753L86.4,70.44836589757416L86.89090909090909,71.3973912302483L87.38181818181818,69.97983906490579L87.87272727272727,69.12486233208364L88.36363636363636,69.68754391209555L88.85454545454546,69.5343267699258L89.34545454545456,70.01679106832601L89.83636363636363,70.12835327951746L90.32727272727273,70.56395745377921L90.81818181818181,72.03647958497913L91.30909090909091,71.72619058645196L91.80000000000001,73.61158925268906L92.29090909090908,73.18165370210325L92.78181818181818,72.62004485359381L93.27272727272728,70.3967833914196L93.76363636363637,72.5093001125953L94.25454545454546,73.79778537742504L94.74545454545454,73.68356869375036L95.23636363636363,74.57281566712457L95.72727272727273,74.4158009273998L96.21818181818182,74.0036993731971L96.7090909090909,72.91521174370739L97.2,73.3415956417292L97.69090909090909,74.75440931635518L98.18181818181819,76.25347555667612L98.67272727272727,75.11360003743839L99.16363636363636,75.69324944532477L99.65454545454546,75.27509476810633L100.14545454545454,74.22315392138525L100.63636363636364,75.70933140859185L101.12727272727274,75.72684355703103L101.61818181818181,75.83432990785705L102.10909090909091,75.13990096932413L102.6,75.56571516604677L103.0909090909091,76.15706556565438L103.58181818181818,76.98362578666337L104.07272727272726,78.44382492134648L104.56363636363636,79.35149389562811L105.05454545454546,79.76098521982316L105.54545454545455,80.25407882790576L106.03636363636363,79.46469748970358L106.52727272727273,78.80079564028873L107.01818181818182,78.69058723791775L107.50909090909092,79.50420891172293L108,79.88265008286598L108.49090909090908,80.52280060384253L108.98181818181818,81.45413192868381L109.47272727272727,78.7877208913971L109.96363636363637,78.70671307199851L110.45454545454547,79.56085322988226L110.94545454545454,79.26352573251044L111.43636363636364,81.39212538092524L111.92727272727272,81.50367267105494L112.41818181818182,82.98109080298849L112.9090909090909,82.50042054198649L113.39999999999999,82.5024639912991L113.89090909090909,81.9853178430725L114.38181818181819,81.92546685750061L114.87272727272727,82.13006943194932L115.36363636363636,81.95631312765002L115.85454545454544,83.01040071310989L116.34545454545454,82.82726296223636L116.83636363636364,81.9409112400061L117.32727272727273,84.37149543759702L117.81818181818181,84.23728439329552L118.30909090909091,82.654505346925L118.8,83.15147821190614L119.2909090909091,84.1171984280109L119.7818181818182,83.36460252632459L120.27272727272727,84.31745189048705L120.76363636363637,85.14644849469975L121.25454545454545,84.40073063475322L121.74545454545455,84.00949203870158L122.23636363636363,84.6652325385896L122.72727272727272,84.33321885232652L123.21818181818182,86.25140037912841L123.70909090909092,86.24979791708022L124.2,86.34308529099164L124.69090909090909,86.21662518302801L125.18181818181817,86.71073363375785L125.67272727272727,87.16603896311199L126.16363636363637,87.41906740640368L126.65454545454546,87.87006887420873L127.14545454545454,87.31688174779133L127.63636363636364,88.01337650919905L128.12727272727273,87.96871662639552L128.61818181818182,88.6982703795213L129.10909090909092,88.71798333665798L129.6,88.36671431744736L130.0909090909091,88.00387805234179L130.5818181818182,86.85060879507137L131.07272727272726,86.75757835458802L131.56363636363636,89.43232436667533L132.05454545454546,88.98195641651147L132.54545454545453,89.08694686540599L133.03636363636363,90.30340030619683L133.52727272727273,89.83768237131346L134.0181818181818,90.03662376700349L134.5090909090909,89.87743992665514L135,90.40095536942744L135.4909090909091,91.01610925814786L135.9818181818182,90.97847093952466L136.47272727272727,91.6403662511474L136.96363636363637,91.3604907760282L137.45454545454544,91.67405510957597L137.94545454545454,92.29048665969903L138.43636363636364,92.89914530084135L138.92727272727274,93.07074308931193L139.4181818181818,92.29881956104057L139.9090909090909,90.96276547465891L140.4,91.33501218927407L140.8909090909091,92.26177139981094L141.3818181818182,92.06695004246734L141.87272727272727,93.1775698260989L142.36363636363635,92.17241268137253L142.85454545454544,91.64820273784295L143.34545454545454,91.28419347246984L143.83636363636364,92.87571597282388L144.3272727272727,94.1923859170137L144.8181818181818,94.4336049388483L145.3090909090909,93.85481108609648L145.8,94.45170314342069L146.2909090909091,93.75688420075349L146.78181818181818,94.6168525755694L147.27272727272725,95.06000028095387L147.76363636363635,94.61319076245074L148.25454545454545,94.4244067066414L148.74545454545455,95.9055987274748L149.23636363636365,95.8207604413888L149.72727272727272,95.18679658923514L150.21818181818182,95.92018683565043L150.70909090909092,94.84686735756625L151.20000000000002,94.49500113420147L151.6909090909091,94.70901444967068L152.18181818181816,96.10679178286877L152.67272727272726,96.33620920687488L153.16363636363636,96.37340241020664L153.65454545454546,97.25405835715381L154.14545454545456,98.08548231685627L154.63636363636365,98.579173340983L155.12727272727273,99.81834505871147L155.61818181818182,99.2547526809089L156.1090909090909,98.32889819855568L156.6,98.7765080375378L157.0909090909091,98.82336103377173L157.58181818181816,99.33423030053038L158.07272727272726,99.70323195263423L158.56363636363636,99.48220266623107L159.05454545454546,98.94225853516345L159.54545454545456,98.10773559709601L160.03636363636366,99.8831846374286L160.52727272727273,99.88605378019886L161.0181818181818,99.99928421148505L161.5090909090909,99.32660863221992L162,98.69803852690048L162.4909090909091,99.70635988028518L162.98181818181817,100.22773115065696L163.47272727272727,99.81986495391729L163.96363636363637,99.1430098327172L164.45454545454547,98.89186627341343L164.94545454545457,99.17011497024518L165.4363636363636,101.5532719906399L165.9272727272727,102.62071836488819L166.4181818181818,102.62670044798082L166.9090909090909,103.00194138704794L167.4,103.45280752829149L167.8909090909091,102.74387299369634L168.38181818181818,103.65596536011016L168.87272727272727,102.61713993078779L169.36363636363637,102.0220415246068L169.85454545454547,102.91092753717771L170.34545454545454,101.92575631326123L170.83636363636361,101.35974357795129L171.3272727272727,101.20091867211309L171.8181818181818,101.81831302898834L172.3090909090909,101.14337958092119L172.8,101.91070546623843L173.2909090909091,101.15410607606239L173.78181818181818,100.8359178357327L174.27272727272728,101.94703420319183L174.76363636363635,102.6347570597213L175.25454545454545,103.36159310216198L175.74545454545455,102.90411482736164L176.23636363636362,103.79774600158947L176.72727272727272,105.83397916490327L177.21818181818182,106.22405694445663L177.70909090909092,105.78387420885181L178.20000000000002,105.69631759829771L178.69090909090912,105.63305553102961L179.1818181818182,106.07343508186622L179.67272727272726,106.79359207182736L180.16363636363636,105.91338506716258L180.65454545454546,105.86471166637203L181.14545454545456,106.46842137432095L181.63636363636363,106.03311448170342L182.12727272727273,105.60638126655579L182.61818181818182,105.39189217244086L183.10909090909092,105.75493016096651L183.60000000000002,106.68050700974086L184.09090909090907,105.85476617347172L184.58181818181816,106.59787181813104L185.07272727272726,106.37489372371783L185.56363636363636,106.14209959832321L186.05454545454546,107.01525345997509L186.54545454545456,106.49782328738667L187.03636363636363,107.46770311355927L187.52727272727273,108.20820956405207L188.01818181818183,107.62767299995544L188.50909090909093,108.44343400589062L189,109.55950577611586L189.49090909090907,109.7392528586876L189.98181818181817,110.13634252150605L190.47272727272727,109.33388211488575L190.96363636363637,110.362702156066L191.45454545454547,109.47848973967183L191.94545454545454,108.61877916831304L192.43636363636364,109.2802076215259L192.92727272727274,109.3171260321962L193.4181818181818,108.68803166338765L193.9090909090909,109.60157034191865L194.4,110.18891557093488L194.89090909090908,109.43323737404361L195.38181818181818,109.48123080743322L195.87272727272727,108.79095410831553L196.36363636363637,108.96514494137635L196.85454545454547,108.12868810643755L197.34545454545454,109.03058610131345L197.83636363636364,111.450187610209L198.3272727272727,113.1034500837048L198.8181818181818,113.54959708688976L199.3090909090909,113.36001391155514L199.8,113.1434195892592L200.29090909090908,112.36782830496111L200.78181818181818,113.7141557189195L201.27272727272728,112.47983596239699L201.76363636363638,111.94612122087207L202.25454545454548,111.6876934518925L202.74545454545452,112.1361141294546L203.23636363636362,112.18215925437056L203.72727272727272,111.13118161127076L204.21818181818182,112.80963706194424L204.70909090909092,111.286015509878L205.2,111.24872823118034L205.6909090909091,112.9897748563222L206.1818181818182,112.1076592445492L206.6727272727273,111.13789762497659L207.16363636363636,111.4435129450205L207.65454545454546,110.78929100551862L208.14545454545453,112.15534591745532L208.63636363636363,113.49193116071541L209.12727272727273,115.32293653116258L209.61818181818182,116.19225334103285L210.10909090909092,116.39817873820888L210.6,116.43853328338402L211.0909090909091,116.57340264942926L211.5818181818182,115.88273562566451L212.07272727272726,115.51211957281437L212.56363636363636,116.85661498792335L213.05454545454546,117.03039495202322L213.54545454545453,115.3029250148083L214.03636363636363,114.88614427903167L214.52727272727273,114.3414111367397L215.01818181818183,114.25194219936127L215.50909090909093,114.57794931842403L216,114.32825340815495L216.49090909090907,115.42155522100992L216.98181818181817,114.59518047566931L217.47272727272727,115.37448776798877L217.96363636363637,114.12844766599397L218.45454545454544,114.61986356232043L218.94545454545454,114.72771666002359L219.43636363636364,117.25634635022533L219.92727272727274,118.52614480176321L220.41818181818184,120.2504478727902L220.90909090909093,120.74753010879706L221.39999999999998,119.74319490160993L221.89090909090908,119.66314088324577L222.38181818181818,119.24134193074627L222.87272727272727,118.54875523375624L223.36363636363637,118.78189171072138L223.85454545454544,118.18614097863215L224.34545454545454,118.07147593357033L224.83636363636364,118.25545303260009L225.32727272727274,118.34366163552635L225.8181818181818,118.16287617052099L226.30909090909088,118.09858691393038L226.79999999999998,117.5910077355228L227.29090909090908,118.14415660273565L227.78181818181818,117.75208566251317L228.27272727272728,118.5958810428555L228.76363636363638,118.89227863429639L229.25454545454545,118.69706679748687L229.74545454545455,118.92725820561563L230.23636363636365,121.49094061784137L230.72727272727272,122.79922177035922L231.21818181818182,123.68916387740362L231.7090909090909,123.53982320259166L232.2,123.55998953280937L232.6909090909091,123.8071473803009L233.1818181818182,122.86605091686361L233.6727272727273,122.83016445912112L234.16363636363639,122.90693431304209L234.65454545454546,122.5977151902893L235.14545454545453,122.3870035357701L235.63636363636363,122.17917948647903L236.12727272727273,120.64252056092758L236.61818181818182,121.44908096439087L237.1090909090909,121.82685020792351L237.6,122.38818889396111L238.0909090909091,122.16731298885776L238.5818181818182,120.78243947976054L239.0727272727273,121.34440729788872L239.5636363636364,120.6734488751805L240.05454545454543,121.43445634521936L240.54545454545453,120.9713476479723" style="fill: none;" fill="none"></path></g></g></g></g><g opacity="0.2"><g><g><g><path stroke="rgb(255, 112, 67)" stroke-width="2px" d="M26.509090909090908,-4.258230288823427L27,2.5173956553141466L27.490909090909092,1.3107981681824015L27.98181818181818,7.906750082969694L28.472727272727273,0.020632187525450263L28.96363636363636,9.05582571029666L29.454545454545453,7.967649340629606L29.94545454545455,11.969087759653746L30.436363636363637,12.801607489585905L30.92727272727273,13.42138652006787L31.418181818181818,19.007938543955504L31.90909090909091,15.757856210072845L32.4,21.24832922220233L32.89090909090909,21.112640937169402L33.38181818181818,18.497341414292663L33.872727272727275,22.32540084918341L34.36363636363636,23.613948861757933L34.85454545454545,23.68395471572876L35.34545454545455,25.780399282773345L35.836363636363636,26.20884253581366L36.32727272727273,27.953418831030547L36.81818181818181,29.099470714728056L37.30909090909091,31.953283488750486L37.800000000000004,31.710826992988615L38.29090909090909,34.4857041438421L38.78181818181818,31.2288493315379L39.27272727272727,38.805749654769926L39.763636363636365,34.37608017524087L40.25454545454545,37.419336676597624L40.74545454545454,36.00190822283429L41.23636363636364,36.420749763647734L41.72727272727273,39.782003303368924L42.21818181818182,38.777696033318875L42.709090909090904,38.74914729595187L43.2,37.71362119913104L43.69090909090909,40.46730562051141L44.18181818181818,43.303745130697905L44.67272727272728,42.463285863399534L45.163636363636364,40.887181599934934L45.654545454545456,41.92300830284756L46.14545454545454,43.85144058863324L46.63636363636364,44.48072407643002L47.12727272727273,43.085469742616056L47.61818181818182,44.43396214644116L48.10909090909091,46.89392789204919L48.6,47.57030043999356L49.09090909090909,45.278064052263915L49.58181818181818,47.145685493946104L50.07272727272727,46.09613700707757L50.56363636363637,44.796263217926054L51.054545454545455,50.46946052710217L51.54545454545455,47.66666237513226L52.03636363636363,46.62332051992419L52.52727272727273,49.694170892238645L53.018181818181816,47.72566958268487L53.50909090909091,49.54823547601703L54,52.218448658784254L54.49090909090909,47.38762919108075L54.981818181818184,49.212891697883634L55.47272727272727,51.39630868037544L55.96363636363636,51.94482638438545L56.45454545454545,50.3826914628347L56.945454545454545,54.261014004548414L57.43636363636364,53.07536168893181L57.92727272727272,53.2220574617386L58.41818181818182,54.26308288176857L58.90909090909091,54.94264715909959L59.4,53.781688749790206L59.8909090909091,55.72812203566235L60.38181818181818,53.72510407368344L60.872727272727275,56.87550896406175L61.36363636363636,55.57361934582394L61.85454545454546,51.9435001810392L62.345454545454544,55.609382629394545L62.836363636363636,55.802468995253264L63.32727272727273,55.981073220570906L63.81818181818182,56.353700995445266L64.30909090909091,58.640499949455275L64.8,59.69202889998756L65.2909090909091,55.10529273748399L65.78181818181818,57.772880037625654L66.27272727272727,61.26649751265846L66.76363636363637,60.41509264707567L67.25454545454545,60.89983765284222L67.74545454545455,59.93990514675778L68.23636363636363,59.08463660875958L68.72727272727272,60.264153023560866L69.21818181818182,59.25249858697258L69.7090909090909,59.51042745510739L70.2,64.90610345204674L70.6909090909091,63.44689075152081L71.18181818181817,62.23034673929216L71.67272727272727,61.214032908280714L72.16363636363636,62.40354005495709L72.65454545454546,63.02594496806465L73.14545454545456,59.36482801040016L73.63636363636363,62.95358731349312L74.12727272727273,62.366132279237135L74.61818181818182,62.663166463375106L75.10909090909091,61.24854956070584L75.60000000000001,68.35289710760118L76.09090909090908,62.839860955874144L76.58181818181818,62.99571637312573L77.07272727272728,63.34547156095506L77.56363636363636,64.5472505092621L78.05454545454545,67.63622566064201L78.54545454545455,65.87839617331825L79.03636363636363,63.563490549723326L79.52727272727273,67.18835794925691L80.01818181818183,64.9263324737549L80.5090909090909,66.81299819548927L81,63.96805330117546L81.49090909090908,68.14882093667985L81.98181818181818,67.07897269725801L82.47272727272728,68.6346445878347L82.96363636363635,69.49120396375658L83.45454545454545,67.84197284777962L83.94545454545455,69.50786991914116L84.43636363636364,72.1832641363144L84.92727272727274,66.71700759728752L85.41818181818181,71.66279121239982L85.9090909090909,70.40860954920453L86.4,70.96387320756914L86.89090909090909,72.8209292292595L87.38181818181818,67.85351081689201L87.87272727272727,67.84239723285042L88.36363636363636,70.53156628211342L88.85454545454546,69.30450105667116L89.34545454545456,70.74048751592638L89.83636363636363,70.2956965963046L90.32727272727273,71.21736371517183L90.81818181818181,74.24526278177899L91.30909090909091,71.26075708866121L91.80000000000001,76.43968725204469L92.29090909090908,72.53675037622453L92.78181818181818,71.77763158082963L93.27272727272728,67.06189119815828L93.76363636363637,75.67807519435884L94.25454545454546,75.73051327466966L94.74545454545454,73.51224366823834L95.23636363636363,75.90668612718584L95.72727272727273,74.18027881781262L96.21818181818182,73.38554704189302L96.7090909090909,71.28248029947282L97.2,73.98117148876192L97.69090909090909,76.87362982829414L98.18181818181819,78.50207491715751L98.67272727272727,73.40378675858182L99.16363636363636,76.56272355715436L99.65454545454546,74.64786275227867L100.14545454545454,72.64524265130363L100.63636363636364,77.93859763940178L101.12727272727274,75.7531117796898L101.61818181818181,75.99555943409604L102.10909090909091,74.09825756152473L102.6,76.2044364611308L103.0909090909091,77.04409116506578L103.58181818181818,78.2234661181768L104.07272727272726,80.63412362337114L104.56363636363636,80.7129973570506L105.05454545454546,80.37522220611574L105.54545454545455,80.99371924002968L106.03636363636363,78.28062548240028L106.52727272727273,77.80494286616646L107.01818181818182,78.52527463436128L107.50909090909092,80.7246414224307L108,80.45031183958055L108.49090909090908,81.48302638530733L108.98181818181818,82.85112891594571L109.47272727272727,74.78810433546704L109.96363636363637,78.58520134290062L110.45454545454547,80.84206346670788L110.94545454545454,78.81753448645276L111.43636363636364,84.58502485354744L111.92727272727272,81.67099360624951L112.41818181818182,85.19721800088884L112.9090909090909,81.77941515048347L113.39999999999999,82.50552916526796L113.89090909090909,81.20959862073265L114.38181818181819,81.83569037914278L114.87272727272727,82.43697329362236L115.36363636363636,81.6956786712011L115.85454545454544,84.59153209129971L116.34545454545454,82.55255633592607L116.83636363636364,80.61138365666073L117.32727272727273,88.01737173398338L117.81818181818181,84.03596782684328L118.30909090909091,80.2803367773692L118.8,83.89693750937782L119.2909090909091,85.56577875216804L119.7818181818182,82.23570867379509L120.27272727272727,85.74672593673073L120.76363636363637,86.3899434010188L121.25454545454545,83.28215384483339L121.74545454545455,83.4226341446241L122.23636363636363,85.64884328842165L122.72727272727272,83.83519832293194L123.21818181818182,89.12867266933125L123.70909090909092,86.24739422400795L124.2,86.4830163518588L124.69090909090909,86.02693502108258L125.18181818181817,87.45189630985261L125.67272727272727,87.84899695714317L126.16363636363637,87.79861007134122L126.65454545454546,88.5465710759163L127.14545454545454,86.48710105816525L127.63636363636364,89.05811865131062L128.12727272727273,87.90172680219017L128.61818181818182,89.79260100920996L129.10909090909092,88.74755277236305L129.6,87.83981078863145L130.0909090909091,87.45962365468345L130.5818181818182,85.12070490916572L131.07272727272726,86.61803269386293L131.56363636363636,93.44444338480633L132.05454545454546,88.30640449126564L132.54545454545453,89.2444325387478L133.03636363636363,92.12808046738309L133.52727272727273,89.13910546898843L134.0181818181818,90.3350358605385L134.5090909090909,89.63866416613263L135,91.18622853358588L135.4909090909091,91.9388400912285L135.9818181818182,90.92201346158983L136.47272727272727,92.63320921858153L136.96363636363637,90.94067756334942L137.45454545454544,92.14440160989763L137.94545454545454,93.21513398488364L138.43636363636364,93.81213326255482L138.92727272727274,93.3281397720178L139.4181818181818,91.14093426863354L139.9090909090909,88.95868434508644L140.4,91.89338226119679L140.8909090909091,93.65191021561624L141.3818181818182,91.77471800645193L141.87272727272727,94.84349950154623L142.36363636363635,90.664676964283L142.85454545454544,90.86188782254857L143.34545454545454,90.73817957441014L143.83636363636364,95.262999723355L144.3272727272727,96.16739083329838L144.8181818181818,94.79543347160023L145.3090909090909,92.9866203069687L145.8,95.34704122940701L146.2909090909091,92.71465578675272L146.78181818181818,95.90680513779324L147.27272727272725,95.7247218390306L147.76363636363635,93.94297648469609L148.25454545454545,94.14123062292737L148.74545454545455,98.12738675872487L149.23636363636365,95.69350301225981L149.72727272727272,94.23585081100465L150.21818181818182,97.02027220527333L150.70909090909092,93.23688814044L151.20000000000002,93.9672017991543L151.6909090909091,95.03003442287446L152.18181818181816,98.20345778266591L152.67272727272726,96.68033534288408L153.16363636363636,96.42919221520425L153.65454545454546,98.57504227757455L154.14545454545456,99.33261825640997L154.63636363636365,99.31970987717312L155.12727272727273,101.67710263530415L155.61818181818182,98.40936411420506L156.1090909090909,96.94011647502583L156.6,99.44792279601099L157.0909090909091,98.8936405281226L157.58181818181816,100.10053420066835L158.07272727272726,100.25673443078996L158.56363636363636,99.15065873662633L159.05454545454546,98.13234233856203L159.54545454545456,96.85595118999483L160.03636363636366,102.54635819792749L160.52727272727273,99.89035749435426L161.0181818181818,100.16912985841435L161.5090909090909,98.3175952633222L162,97.7551833689213L162.4909090909091,101.21884191036226L162.98181818181817,101.00978805621466L163.47272727272727,99.20806565880777L163.96363636363637,98.12772715091707L164.45454545454547,98.5151509344578L164.94545454545457,99.58748801549277L165.4363636363636,105.12800752123198L165.9272727272727,104.22188792626065L166.4181818181818,102.63567357261977L166.9090909090909,103.56480279564859L167.4,104.12910674015683L167.8909090909091,101.68047119180363L168.38181818181818,105.02410390973093L168.87272727272727,101.05890178680421L169.36363636363637,101.12939391533536L169.85454545454547,104.2442565560341L170.34545454545454,100.44799947738649L170.83636363636361,100.5107244749864L171.3272727272727,100.96268131335577L171.8181818181818,102.74440456430119L172.3090909090909,100.13097940882048L172.8,103.06169429421426L173.2909090909091,100.01920699079832L173.78181818181818,100.35863547523817L174.27272727272728,103.61370875438055L174.76363636363635,103.6663413445155L175.25454545454545,104.451847165823L175.74545454545455,102.21789741516115L176.23636363636362,105.1381927629312L176.72727272727272,108.88832890987398L177.21818181818182,106.80917361378671L177.70909090909092,105.12360010544461L178.20000000000002,105.56498268246652L178.69090909090912,105.53816243012747L179.1818181818182,106.73400440812112L179.67272727272726,107.87382755676907L180.16363636363636,104.59307456016542L180.65454545454546,105.7917015651862L181.14545454545456,107.37398593624434L181.63636363636363,105.38015414277714L182.12727272727273,104.96628144383432L182.61818181818182,105.07015853126845L183.10909090909092,106.29948714375497L183.60000000000002,108.06887228290242L184.09090909090907,104.61615491906804L184.58181818181816,107.71253028512002L185.07272727272726,106.04042658209802L185.56363636363636,105.79290841023129L186.05454545454546,108.32498425245286L186.54545454545456,105.72167802850407L187.03636363636363,108.92252285281819L187.52727272727273,109.31896923979124L188.01818181818183,106.75686815381052L188.50909090909093,109.66707551479341L189,111.23361343145372L189.49090909090907,110.00887348254523L189.98181818181817,110.73197701573373L190.47272727272727,108.1301915049553L190.96363636363637,111.9059322178364L191.45454545454547,108.15217111508053L191.94545454545454,107.32921331127486L192.43636363636364,110.2723503013452L192.92727272727274,109.37250364820164L193.4181818181818,107.74439011017483L193.9090909090909,110.97187835971516L194.4,111.06993341445924L194.89090909090908,108.29972007870676L195.38181818181818,109.55322095751764L195.87272727272727,107.75553905963899L196.36363636363637,109.22643119096757L196.85454545454547,106.87400285402936L197.34545454545454,110.3834330936273L197.83636363636364,115.07958987355232L198.3272727272727,115.5833437939485L198.8181818181818,114.21881759166718L199.3090909090909,113.07563914855322L199.8,112.81852810581526L200.29090909090908,111.20444137851399L200.78181818181818,115.7336468398571L201.27272727272728,110.6283563276132L201.76363636363638,111.14554910858473L202.25454545454548,111.30005179842314L202.74545454545452,112.80874514579774L203.23636363636362,112.2512269417445L203.72727272727272,109.55471514662108L204.21818181818182,115.32732023795447L204.70909090909092,109.00058318177861L205.2,111.1927973131339L205.6909090909091,115.60134479403496L206.1818181818182,110.78448582688969L206.6727272727273,109.68325519561769L207.16363636363636,111.90193592508635L207.65454545454546,109.8079580962658L208.14545454545453,114.20442828536034L208.63636363636363,115.49680902560553L209.12727272727273,118.06944458683333L209.61818181818182,117.49622855583829L210.10909090909092,116.70706683397293L210.6,116.4990651011467L211.0909090909091,116.77570669849715L211.5818181818182,114.84673509001732L212.07272727272726,114.95619549353918L212.56363636363636,118.87335811058682L213.05454545454546,117.29106489817303L213.54545454545453,112.71172010898592L214.03636363636363,114.26097317536673L214.52727272727273,113.52431142330171L215.01818181818183,114.11773879329365L215.50909090909093,115.06695999701819L216,113.95370954275133L216.49090909090907,117.06150794029236L216.98181818181817,113.3556183576584L217.47272727272727,116.54344870646796L217.96363636363637,112.25938751300177L218.45454545454544,115.35698740681013L218.94545454545454,114.88949630657834L219.43636363636364,121.04929088552794L219.92727272727274,120.43084247907004L220.41818181818184,122.83690247933072L220.90909090909093,121.49315346280736L221.39999999999998,118.23669209082922L221.89090909090908,119.54305985569954L222.38181818181818,118.608643501997L222.87272727272727,117.50987518827122L223.36363636363637,119.1315964261691L223.85454545454544,117.29251488049826L224.34545454545454,117.89947836597761L224.83636363636364,118.53141868114471L225.32727272727274,118.47597453991574L225.8181818181818,117.89169797301292L226.30909090909088,118.00215302904448L226.79999999999998,116.82963896791142L227.29090909090908,118.97387990355492L227.78181818181818,117.16397925217947L228.27272727272728,119.86157411336899L228.76363636363638,119.33687502145767L229.25454545454545,118.40424904227257L229.74545454545455,119.2725453178088L230.23636363636365,125.33646423618L230.72727272727272,124.76164349913597L231.21818181818182,125.02407703797024L231.7090909090909,123.31581219037375L232.2,123.59023902813595L232.6909090909091,124.17788415153822L233.1818181818182,121.45440622170767L233.6727272727273,122.77633477250737L234.16363636363639,123.02208909392357L234.65454545454546,122.13388650616011L235.14545454545453,122.07093605399132L235.63636363636363,121.86744341254234L236.12727272727273,118.33753217260045L236.61818181818182,122.6589215695858L237.1090909090909,122.39350407322249L237.6,123.2301969230175L238.0909090909091,121.8359991312027L238.5818181818182,118.7051292161147L239.0727272727273,122.18735902508101L239.5636363636364,119.66701124111813L240.05454545454543,122.57596755027771L240.54545454545453,120.27668460210165" style="fill: none;" fill="none"></path></g></g></g></g></g></g><g transform="translate(60, 178)" clip-path="url(#clip_1)"><clipPath id="clip_1"><rect width="270" height="22"></rect></clipPath><g><g><line x1="0" y1="0" x2="0" y2="5" style="visibility: inherit;" fill="rgb(0, 0, 0)" stroke="rgb(204, 204, 204)" stroke-width="1px"></line><line x1="24.545454545454547" y1="0" x2="24.545454545454547" y2="5" style="visibility: inherit;" fill="rgb(0, 0, 0)" stroke="rgb(204, 204, 204)" stroke-width="1px"></line><line x1="49.09090909090909" y1="0" x2="49.09090909090909" y2="5" style="visibility: inherit;" fill="rgb(0, 0, 0)" stroke="rgb(204, 204, 204)" stroke-width="1px"></line><line x1="73.63636363636363" y1="0" x2="73.63636363636363" y2="5" style="visibility: inherit;" fill="rgb(0, 0, 0)" stroke="rgb(204, 204, 204)" stroke-width="1px"></line><line x1="98.18181818181819" y1="0" x2="98.18181818181819" y2="5" style="visibility: inherit;" fill="rgb(0, 0, 0)" stroke="rgb(204, 204, 204)" stroke-width="1px"></line><line x1="122.72727272727272" y1="0" x2="122.72727272727272" y2="5" style="visibility: inherit;" fill="rgb(0, 0, 0)" stroke="rgb(204, 204, 204)" stroke-width="1px"></line><line x1="147.27272727272725" y1="0" x2="147.27272727272725" y2="5" style="visibility: inherit;" fill="rgb(0, 0, 0)" stroke="rgb(204, 204, 204)" stroke-width="1px"></line><line x1="171.8181818181818" y1="0" x2="171.8181818181818" y2="5" style="visibility: inherit;" fill="rgb(0, 0, 0)" stroke="rgb(204, 204, 204)" stroke-width="1px"></line><line x1="196.36363636363637" y1="0" x2="196.36363636363637" y2="5" style="visibility: inherit;" fill="rgb(0, 0, 0)" stroke="rgb(204, 204, 204)" stroke-width="1px"></line><line x1="220.90909090909093" y1="0" x2="220.90909090909093" y2="5" style="visibility: inherit;" fill="rgb(0, 0, 0)" stroke="rgb(204, 204, 204)" stroke-width="1px"></line><line x1="245.45454545454544" y1="0" x2="245.45454545454544" y2="5" style="visibility: inherit;" fill="rgb(0, 0, 0)" stroke="rgb(204, 204, 204)" stroke-width="1px"></line><line x1="270" y1="0" x2="270" y2="5" style="visibility: inherit;" fill="rgb(0, 0, 0)" stroke="rgb(204, 204, 204)" stroke-width="1px"></line></g><g transform="translate(0, 8)"><text x="0" y="0" dx="0em" dy="0.95em" style="text-anchor: middle; visibility: hidden; font-family: &quot;Helvetica Neue&quot;, sans-serif; font-size: 12px; font-weight: 200;" fill="rgb(50, 49, 63)" stroke="none" stroke-width="1px">-50</text><text x="24.545454545454547" y="0" dx="0em" dy="0.95em" style="text-anchor: middle; visibility: inherit; font-family: &quot;Helvetica Neue&quot;, sans-serif; font-size: 12px; font-weight: 200;" fill="rgb(50, 49, 63)" stroke="none" stroke-width="1px">0</text><text x="49.09090909090909" y="0" dx="0em" dy="0.95em" style="text-anchor: middle; visibility: hidden; font-family: &quot;Helvetica Neue&quot;, sans-serif; font-size: 12px; font-weight: 200;" fill="rgb(50, 49, 63)" stroke="none" stroke-width="1px">50</text><text x="73.63636363636363" y="0" dx="0em" dy="0.95em" style="text-anchor: middle; visibility: inherit; font-family: &quot;Helvetica Neue&quot;, sans-serif; font-size: 12px; font-weight: 200;" fill="rgb(50, 49, 63)" stroke="none" stroke-width="1px">100</text><text x="98.18181818181819" y="0" dx="0em" dy="0.95em" style="text-anchor: middle; visibility: hidden; font-family: &quot;Helvetica Neue&quot;, sans-serif; font-size: 12px; font-weight: 200;" fill="rgb(50, 49, 63)" stroke="none" stroke-width="1px">150</text><text x="122.72727272727272" y="0" dx="0em" dy="0.95em" style="text-anchor: middle; visibility: inherit; font-family: &quot;Helvetica Neue&quot;, sans-serif; font-size: 12px; font-weight: 200;" fill="rgb(50, 49, 63)" stroke="none" stroke-width="1px">200</text><text x="147.27272727272725" y="0" dx="0em" dy="0.95em" style="text-anchor: middle; visibility: hidden; font-family: &quot;Helvetica Neue&quot;, sans-serif; font-size: 12px; font-weight: 200;" fill="rgb(50, 49, 63)" stroke="none" stroke-width="1px">250</text><text x="171.8181818181818" y="0" dx="0em" dy="0.95em" style="text-anchor: middle; visibility: inherit; font-family: &quot;Helvetica Neue&quot;, sans-serif; font-size: 12px; font-weight: 200;" fill="rgb(50, 49, 63)" stroke="none" stroke-width="1px">300</text><text x="196.36363636363637" y="0" dx="0em" dy="0.95em" style="text-anchor: middle; visibility: hidden; font-family: &quot;Helvetica Neue&quot;, sans-serif; font-size: 12px; font-weight: 200;" fill="rgb(50, 49, 63)" stroke="none" stroke-width="1px">350</text><text x="220.90909090909093" y="0" dx="0em" dy="0.95em" style="text-anchor: middle; visibility: inherit; font-family: &quot;Helvetica Neue&quot;, sans-serif; font-size: 12px; font-weight: 200;" fill="rgb(50, 49, 63)" stroke="none" stroke-width="1px">400</text><text x="245.45454545454544" y="0" dx="0em" dy="0.95em" style="text-anchor: middle; visibility: hidden; font-family: &quot;Helvetica Neue&quot;, sans-serif; font-size: 12px; font-weight: 200;" fill="rgb(50, 49, 63)" stroke="none" stroke-width="1px">450</text><text x="270" y="0" dx="0em" dy="0.95em" style="text-anchor: middle; visibility: hidden; font-family: &quot;Helvetica Neue&quot;, sans-serif; font-size: 12px; font-weight: 200;" fill="rgb(50, 49, 63)" stroke="none" stroke-width="1px">500</text></g><line x1="0" y1="0" x2="270" y2="0" fill="rgb(0, 0, 0)" stroke="rgb(204, 204, 204)" stroke-width="1px"></line></g></g></g></g></svg>